solid OpenSCAD_Model
  facet normal -1 0 0
    outer loop
      vertex 0 0 0
      vertex 0 0 20
      vertex 0 30 0
    endloop
  endfacet
  facet normal -1 0 0
    outer loop
      vertex 0 30 0
      vertex 0 0 20
      vertex 0 30 20
    endloop
  endfacet
  facet normal 0 -1 0
    outer loop
      vertex 15.1 0 5
      vertex 0 0 0
      vertex 40 0 0
    endloop
  endfacet
  facet normal 0 -1 0
    outer loop
      vertex 10.1 0 20
      vertex 10.1 0 5
      vertex 15.1 0 5
    endloop
  endfacet
  facet normal 0 -1 0
    outer loop
      vertex 5 0 5
      vertex 5 0 20
      vertex 0 0 20
    endloop
  endfacet
  facet normal 0 -1 0
    outer loop
      vertex 10.1 0 5
      vertex 0 0 0
      vertex 15.1 0 5
    endloop
  endfacet
  facet normal 0 -1 0
    outer loop
      vertex 5 0 5
      vertex 0 0 0
      vertex 10.1 0 5
    endloop
  endfacet
  facet normal 0 -1 0
    outer loop
      vertex 0 0 20
      vertex 0 0 0
      vertex 5 0 5
    endloop
  endfacet
  facet normal 0 -1 0
    outer loop
      vertex 40 0 5
      vertex 15.1 0 5
      vertex 40 0 0
    endloop
  endfacet
  facet normal 0 -1 0
    outer loop
      vertex 15.1 0 5
      vertex 15.1 0 20
      vertex 10.1 0 20
    endloop
  endfacet
  facet normal 0 0 -1
    outer loop
      vertex 0 0 0
      vertex 0 30 0
      vertex 40 0 0
    endloop
  endfacet
  facet normal 0 0 -1
    outer loop
      vertex 40 29.9909 0
      vertex 0 30 0
      vertex 40 30 0
    endloop
  endfacet
  facet normal 0 0 -1
    outer loop
      vertex 40 0 0
      vertex 0 30 0
      vertex 40 0.00913759 0
    endloop
  endfacet
  facet normal 0 0 -1
    outer loop
      vertex 43.495 15.3709 0
      vertex 45.6191 28.9078 0
      vertex 46.5756 28.4819 0
    endloop
  endfacet
  facet normal 0 0 -1
    outer loop
      vertex 43.8398 16.0278 0
      vertex 46.5756 28.4819 0
      vertex 47.5 27.9904 0
    endloop
  endfacet
  facet normal 0 0 -1
    outer loop
      vertex 44.4504 16.4493 0
      vertex 47.5 27.9904 0
      vertex 48.3879 27.4356 0
    endloop
  endfacet
  facet normal 0 0 -1
    outer loop
      vertex 45.1868 16.5387 0
      vertex 48.3879 27.4356 0
      vertex 49.2349 26.8202 0
    endloop
  endfacet
  facet normal 0 0 -1
    outer loop
      vertex 46.1247 16 0
      vertex 49.2349 26.8202 0
      vertex 50.037 26.1472 0
    endloop
  endfacet
  facet normal 0 0 -1
    outer loop
      vertex 40 0.00913759 0
      vertex 45.6191 28.9078 0
      vertex 43.495 15.3709 0
    endloop
  endfacet
  facet normal 0 0 -1
    outer loop
      vertex 40 0.00913759 0
      vertex 43.8398 13.9722 0
      vertex 44.4504 13.5507 0
    endloop
  endfacet
  facet normal 0 0 -1
    outer loop
      vertex 40 0.00913759 0
      vertex 44.4504 13.5507 0
      vertex 45.1868 13.4613 0
    endloop
  endfacet
  facet normal 0 0 -1
    outer loop
      vertex 40 0.00913759 0
      vertex 45.1868 13.4613 0
      vertex 45.8805 13.7244 0
    endloop
  endfacet
  facet normal 0 0 -1
    outer loop
      vertex 40 0.00913759 0
      vertex 45.8805 13.7244 0
      vertex 46.1247 14 0
    endloop
  endfacet
  facet normal 0 0 -1
    outer loop
      vertex 40 0.00913759 0
      vertex 46.1247 14 0
      vertex 54.9651 14 0
    endloop
  endfacet
  facet normal 0 0 -1
    outer loop
      vertex 40 0.00913759 0
      vertex 54.9651 14 0
      vertex 54.9635 13.9537 0
    endloop
  endfacet
  facet normal 0 0 -1
    outer loop
      vertex 40 0.00913759 0
      vertex 54.9635 13.9537 0
      vertex 54.854 12.9124 0
    endloop
  endfacet
  facet normal 0 0 -1
    outer loop
      vertex 40 0.00913759 0
      vertex 54.854 12.9124 0
      vertex 54.6722 11.8813 0
    endloop
  endfacet
  facet normal 0 0 -1
    outer loop
      vertex 40 0.00913759 0
      vertex 54.6722 11.8813 0
      vertex 54.4189 10.8654 0
    endloop
  endfacet
  facet normal 0 0 -1
    outer loop
      vertex 40 0.00913759 0
      vertex 54.4189 10.8654 0
      vertex 54.0954 9.8697 0
    endloop
  endfacet
  facet normal 0 0 -1
    outer loop
      vertex 45.8805 16.2756 0
      vertex 49.2349 26.8202 0
      vertex 46.1247 16 0
    endloop
  endfacet
  facet normal 0 0 -1
    outer loop
      vertex 45.1868 16.5387 0
      vertex 49.2349 26.8202 0
      vertex 45.8805 16.2756 0
    endloop
  endfacet
  facet normal 0 0 -1
    outer loop
      vertex 44.4504 16.4493 0
      vertex 48.3879 27.4356 0
      vertex 45.1868 16.5387 0
    endloop
  endfacet
  facet normal 0 0 -1
    outer loop
      vertex 43.8398 16.0278 0
      vertex 47.5 27.9904 0
      vertex 44.4504 16.4493 0
    endloop
  endfacet
  facet normal 0 0 -1
    outer loop
      vertex 43.495 15.3709 0
      vertex 46.5756 28.4819 0
      vertex 43.8398 16.0278 0
    endloop
  endfacet
  facet normal 0 0 -1
    outer loop
      vertex 40 0.00913759 0
      vertex 42.6047 29.7721 0
      vertex 43.6288 29.5544 0
    endloop
  endfacet
  facet normal 0 0 -1
    outer loop
      vertex 40 0.00913759 0
      vertex 43.6288 29.5544 0
      vertex 44.6353 29.2658 0
    endloop
  endfacet
  facet normal 0 0 -1
    outer loop
      vertex 40 0.00913759 0
      vertex 44.6353 29.2658 0
      vertex 45.6191 28.9078 0
    endloop
  endfacet
  facet normal 0 0 -1
    outer loop
      vertex 40 0.00913759 0
      vertex 43.495 15.3709 0
      vertex 43.495 14.6291 0
    endloop
  endfacet
  facet normal 0 0 -1
    outer loop
      vertex 40 0.00913759 0
      vertex 43.495 14.6291 0
      vertex 43.8398 13.9722 0
    endloop
  endfacet
  facet normal 0 0 -1
    outer loop
      vertex 40 0.00913759 0
      vertex 40.5235 29.9909 0
      vertex 41.5679 29.9178 0
    endloop
  endfacet
  facet normal 0 0 -1
    outer loop
      vertex 40 29.9909 0
      vertex 40.5235 29.9909 0
      vertex 40 0.00913759 0
    endloop
  endfacet
  facet normal 0 0 -1
    outer loop
      vertex 40 29.9909 0
      vertex 40 0.00913759 0
      vertex 0 30 0
    endloop
  endfacet
  facet normal 0 0 -1
    outer loop
      vertex 46.1247 16 0
      vertex 50.037 26.1472 0
      vertex 50.7901 25.4199 0
    endloop
  endfacet
  facet normal 0 0 -1
    outer loop
      vertex 46.1247 16 0
      vertex 50.7901 25.4199 0
      vertex 51.4907 24.6418 0
    endloop
  endfacet
  facet normal 0 0 -1
    outer loop
      vertex 46.1247 16 0
      vertex 51.4907 24.6418 0
      vertex 52.1353 23.8168 0
    endloop
  endfacet
  facet normal 0 0 -1
    outer loop
      vertex 46.1247 16 0
      vertex 52.1353 23.8168 0
      vertex 52.7207 22.9488 0
    endloop
  endfacet
  facet normal 0 0 -1
    outer loop
      vertex 46.1247 16 0
      vertex 52.7207 22.9488 0
      vertex 53.2442 22.0421 0
    endloop
  endfacet
  facet normal 0 0 -1
    outer loop
      vertex 46.1247 16 0
      vertex 53.2442 22.0421 0
      vertex 53.7032 21.101 0
    endloop
  endfacet
  facet normal 0 0 -1
    outer loop
      vertex 46.1247 16 0
      vertex 53.7032 21.101 0
      vertex 54.0954 20.1303 0
    endloop
  endfacet
  facet normal 0 0 -1
    outer loop
      vertex 46.1247 16 0
      vertex 54.0954 20.1303 0
      vertex 54.4189 19.1346 0
    endloop
  endfacet
  facet normal 0 0 -1
    outer loop
      vertex 46.1247 16 0
      vertex 54.4189 19.1346 0
      vertex 54.6722 18.1187 0
    endloop
  endfacet
  facet normal 0 0 -1
    outer loop
      vertex 46.1247 16 0
      vertex 54.6722 18.1187 0
      vertex 54.854 17.0876 0
    endloop
  endfacet
  facet normal 0 0 -1
    outer loop
      vertex 46.1247 16 0
      vertex 54.854 17.0876 0
      vertex 54.9635 16.0463 0
    endloop
  endfacet
  facet normal 0 0 -1
    outer loop
      vertex 46.1247 16 0
      vertex 54.9635 16.0463 0
      vertex 54.9651 16 0
    endloop
  endfacet
  facet normal 0 0 -1
    outer loop
      vertex 40 0.00913759 0
      vertex 41.5679 29.9178 0
      vertex 42.6047 29.7721 0
    endloop
  endfacet
  facet normal 0 0 -1
    outer loop
      vertex 40 0.00913759 0
      vertex 54.0954 9.8697 0
      vertex 53.7032 8.89895 0
    endloop
  endfacet
  facet normal 0 0 -1
    outer loop
      vertex 40 0.00913759 0
      vertex 53.7032 8.89895 0
      vertex 53.2442 7.95793 0
    endloop
  endfacet
  facet normal 0 0 -1
    outer loop
      vertex 40 0.00913759 0
      vertex 53.2442 7.95793 0
      vertex 52.7207 7.05121 0
    endloop
  endfacet
  facet normal 0 0 -1
    outer loop
      vertex 40 0.00913759 0
      vertex 52.7207 7.05121 0
      vertex 52.1353 6.18322 0
    endloop
  endfacet
  facet normal 0 0 -1
    outer loop
      vertex 40 0.00913759 0
      vertex 52.1353 6.18322 0
      vertex 51.4907 5.35819 0
    endloop
  endfacet
  facet normal 0 0 -1
    outer loop
      vertex 40 0.00913759 0
      vertex 51.4907 5.35819 0
      vertex 50.7901 4.58012 0
    endloop
  endfacet
  facet normal 0 0 -1
    outer loop
      vertex 40 0.00913759 0
      vertex 50.7901 4.58012 0
      vertex 50.037 3.85283 0
    endloop
  endfacet
  facet normal 0 0 -1
    outer loop
      vertex 40 0.00913759 0
      vertex 50.037 3.85283 0
      vertex 49.2349 3.17984 0
    endloop
  endfacet
  facet normal 0 0 -1
    outer loop
      vertex 40 0.00913759 0
      vertex 49.2349 3.17984 0
      vertex 48.3879 2.56444 0
    endloop
  endfacet
  facet normal 0 0 -1
    outer loop
      vertex 40 0.00913759 0
      vertex 48.3879 2.56444 0
      vertex 47.5 2.00962 0
    endloop
  endfacet
  facet normal 0 0 -1
    outer loop
      vertex 40 0.00913759 0
      vertex 47.5 2.00962 0
      vertex 46.5756 1.51809 0
    endloop
  endfacet
  facet normal 0 0 -1
    outer loop
      vertex 40 0.00913759 0
      vertex 46.5756 1.51809 0
      vertex 45.6191 1.09224 0
    endloop
  endfacet
  facet normal 0 0 -1
    outer loop
      vertex 40 0.00913759 0
      vertex 45.6191 1.09224 0
      vertex 44.6353 0.734152 0
    endloop
  endfacet
  facet normal 0 0 -1
    outer loop
      vertex 40 0.00913759 0
      vertex 44.6353 0.734152 0
      vertex 43.6288 0.445564 0
    endloop
  endfacet
  facet normal 0 0 -1
    outer loop
      vertex 40 0.00913759 0
      vertex 43.6288 0.445564 0
      vertex 42.6047 0.227884 0
    endloop
  endfacet
  facet normal 0 0 -1
    outer loop
      vertex 40 0.00913759 0
      vertex 42.6047 0.227884 0
      vertex 41.5679 0.0821716 0
    endloop
  endfacet
  facet normal 0 0 -1
    outer loop
      vertex 40 0.00913759 0
      vertex 41.5679 0.0821716 0
      vertex 40.5235 0.00913759 0
    endloop
  endfacet
  facet normal 0 1 0
    outer loop
      vertex 0 30 0
      vertex 0 30 20
      vertex 5 30 5
    endloop
  endfacet
  facet normal 0 1 0
    outer loop
      vertex 0 30 0
      vertex 5 30 5
      vertex 40 30 0
    endloop
  endfacet
  facet normal 0 1 0
    outer loop
      vertex 40 30 5
      vertex 40 30 0
      vertex 15.1 30 5
    endloop
  endfacet
  facet normal 0 1 0
    outer loop
      vertex 5 30 5
      vertex 10.1 30 5
      vertex 40 30 0
    endloop
  endfacet
  facet normal 0 1 0
    outer loop
      vertex 15.1 30 5
      vertex 10.1 30 20
      vertex 15.1 30 20
    endloop
  endfacet
  facet normal 0 1 0
    outer loop
      vertex 10.1 30 20
      vertex 15.1 30 5
      vertex 10.1 30 5
    endloop
  endfacet
  facet normal 0 1 0
    outer loop
      vertex 10.1 30 5
      vertex 15.1 30 5
      vertex 40 30 0
    endloop
  endfacet
  facet normal 0 1 0
    outer loop
      vertex 5 30 5
      vertex 0 30 20
      vertex 5 30 20
    endloop
  endfacet
  facet normal 0 0 1
    outer loop
      vertex 0 30 20
      vertex 0 0 20
      vertex 5 0 20
    endloop
  endfacet
  facet normal 0 0 1
    outer loop
      vertex 5 30 20
      vertex 0 30 20
      vertex 5 0 20
    endloop
  endfacet
  facet normal 1 0 0
    outer loop
      vertex 5 0 20
      vertex 5 0 5
      vertex 5 30 5
    endloop
  endfacet
  facet normal 1 0 0
    outer loop
      vertex 5 30 20
      vertex 5 0 20
      vertex 5 30 5
    endloop
  endfacet
  facet normal 0 0 1
    outer loop
      vertex 10.1 0 5
      vertex 10.1 30 5
      vertex 5 30 5
    endloop
  endfacet
  facet normal 0 0 1
    outer loop
      vertex 5 0 5
      vertex 10.1 0 5
      vertex 5 30 5
    endloop
  endfacet
  facet normal -1 0 0
    outer loop
      vertex 10.1 0 5
      vertex 10.1 0 20
      vertex 10.1 30 5
    endloop
  endfacet
  facet normal -1 0 0
    outer loop
      vertex 10.1 13.408 15
      vertex 10.1 0 20
      vertex 10.1 13.408 20
    endloop
  endfacet
  facet normal -1 0 0
    outer loop
      vertex 10.1 30 5
      vertex 10.1 0 20
      vertex 10.1 13.408 15
    endloop
  endfacet
  facet normal -1 0 0
    outer loop
      vertex 10.1 30 5
      vertex 10.1 13.408 15
      vertex 10.1 16.592 15
    endloop
  endfacet
  facet normal -1 0 0
    outer loop
      vertex 10.1 30 5
      vertex 10.1 16.592 20
      vertex 10.1 30 20
    endloop
  endfacet
  facet normal -1 0 0
    outer loop
      vertex 10.1 16.592 20
      vertex 10.1 30 5
      vertex 10.1 16.592 15
    endloop
  endfacet
  facet normal 0 0 1
    outer loop
      vertex 9.62236 15.7725 20
      vertex 9.5 15 20
      vertex 9.62236 14.2275 20
    endloop
  endfacet
  facet normal 0 0 1
    outer loop
      vertex 10.1 13.408 20
      vertex 9.62236 15.7725 20
      vertex 9.97746 13.5305 20
    endloop
  endfacet
  facet normal 0 0 1
    outer loop
      vertex 9.97746 13.5305 20
      vertex 9.62236 15.7725 20
      vertex 9.62236 14.2275 20
    endloop
  endfacet
  facet normal 0 0 1
    outer loop
      vertex 15.1 0 20
      vertex 9.62236 15.7725 20
      vertex 10.1 13.408 20
    endloop
  endfacet
  facet normal 0 0 1
    outer loop
      vertex 15.1 0 20
      vertex 10.1 13.408 20
      vertex 10.1 0 20
    endloop
  endfacet
  facet normal 0 0 1
    outer loop
      vertex 10.1 16.592 20
      vertex 9.62236 15.7725 20
      vertex 15.1 0 20
    endloop
  endfacet
  facet normal 0 0 1
    outer loop
      vertex 15.1 30 20
      vertex 10.1 16.592 20
      vertex 15.1 0 20
    endloop
  endfacet
  facet normal 0 0 1
    outer loop
      vertex 9.97746 16.4695 20
      vertex 9.62236 15.7725 20
      vertex 10.1 16.592 20
    endloop
  endfacet
  facet normal 0 0 1
    outer loop
      vertex 10.1 30 20
      vertex 10.1 16.592 20
      vertex 15.1 30 20
    endloop
  endfacet
  facet normal 1 0 0
    outer loop
      vertex 15.1 0 20
      vertex 15.1 0 5
      vertex 15.1 10 5
    endloop
  endfacet
  facet normal 1 0 0
    outer loop
      vertex 15.1 20 11.9
      vertex 15.1 0 20
      vertex 15.1 10 11.9
    endloop
  endfacet
  facet normal 1 0 0
    outer loop
      vertex 15.1 10 11.9
      vertex 15.1 0 20
      vertex 15.1 10 5
    endloop
  endfacet
  facet normal 1 0 0
    outer loop
      vertex 15.1 30 20
      vertex 15.1 0 20
      vertex 15.1 20 11.9
    endloop
  endfacet
  facet normal 1 0 0
    outer loop
      vertex 15.1 30 5
      vertex 15.1 20 11.9
      vertex 15.1 20 5
    endloop
  endfacet
  facet normal 1 0 0
    outer loop
      vertex 15.1 30 20
      vertex 15.1 20 11.9
      vertex 15.1 30 5
    endloop
  endfacet
  facet normal 0 0 1
    outer loop
      vertex 41.5679 0.0821716 5
      vertex 40 0.00913759 5
      vertex 40.5235 0.00913759 5
    endloop
  endfacet
  facet normal 0 0 1
    outer loop
      vertex 42.6047 0.227884 5
      vertex 40 0.00913759 5
      vertex 41.5679 0.0821716 5
    endloop
  endfacet
  facet normal 0 0 1
    outer loop
      vertex 40 0 5
      vertex 40 0.00913759 5
      vertex 15.1 10 5
    endloop
  endfacet
  facet normal 0 0 1
    outer loop
      vertex 43.6288 0.445564 5
      vertex 40 0.00913759 5
      vertex 42.6047 0.227884 5
    endloop
  endfacet
  facet normal 0 0 1
    outer loop
      vertex 44.6353 0.734152 5
      vertex 40 0.00913759 5
      vertex 43.6288 0.445564 5
    endloop
  endfacet
  facet normal 0 0 1
    outer loop
      vertex 45.6191 1.09224 5
      vertex 40 0.00913759 5
      vertex 44.6353 0.734152 5
    endloop
  endfacet
  facet normal 0 0 1
    outer loop
      vertex 46.5756 1.51809 5
      vertex 40 0.00913759 5
      vertex 45.6191 1.09224 5
    endloop
  endfacet
  facet normal 0 0 1
    outer loop
      vertex 47.5 2.00962 5
      vertex 40 0.00913759 5
      vertex 46.5756 1.51809 5
    endloop
  endfacet
  facet normal 0 0 1
    outer loop
      vertex 48.3879 2.56444 5
      vertex 40 0.00913759 5
      vertex 47.5 2.00962 5
    endloop
  endfacet
  facet normal 0 0 1
    outer loop
      vertex 49.2349 3.17984 5
      vertex 40 0.00913759 5
      vertex 48.3879 2.56444 5
    endloop
  endfacet
  facet normal 0 0 1
    outer loop
      vertex 50.037 3.85283 5
      vertex 40 0.00913759 5
      vertex 49.2349 3.17984 5
    endloop
  endfacet
  facet normal 0 0 1
    outer loop
      vertex 50.7901 4.58012 5
      vertex 40 0.00913759 5
      vertex 50.037 3.85283 5
    endloop
  endfacet
  facet normal 0 0 1
    outer loop
      vertex 51.4907 5.35819 5
      vertex 40 0.00913759 5
      vertex 50.7901 4.58012 5
    endloop
  endfacet
  facet normal 0 0 1
    outer loop
      vertex 52.1353 6.18322 5
      vertex 40 0.00913759 5
      vertex 51.4907 5.35819 5
    endloop
  endfacet
  facet normal 0 0 1
    outer loop
      vertex 52.7207 7.05121 5
      vertex 40 0.00913759 5
      vertex 52.1353 6.18322 5
    endloop
  endfacet
  facet normal 0 0 1
    outer loop
      vertex 53.2442 7.95793 5
      vertex 40 0.00913759 5
      vertex 52.7207 7.05121 5
    endloop
  endfacet
  facet normal 0 0 1
    outer loop
      vertex 53.7032 8.89895 5
      vertex 40 0.00913759 5
      vertex 53.2442 7.95793 5
    endloop
  endfacet
  facet normal 0 0 1
    outer loop
      vertex 54.0954 9.8697 5
      vertex 40 0.00913759 5
      vertex 53.7032 8.89895 5
    endloop
  endfacet
  facet normal 0 0 1
    outer loop
      vertex 54.4189 10.8654 5
      vertex 40 0.00913759 5
      vertex 54.0954 9.8697 5
    endloop
  endfacet
  facet normal 0 0 1
    outer loop
      vertex 54.6722 11.8813 5
      vertex 40 0.00913759 5
      vertex 54.4189 10.8654 5
    endloop
  endfacet
  facet normal 0 0 1
    outer loop
      vertex 54.854 12.9124 5
      vertex 40 0.00913759 5
      vertex 54.6722 11.8813 5
    endloop
  endfacet
  facet normal 0 0 1
    outer loop
      vertex 54.9635 13.9537 5
      vertex 40 0.00913759 5
      vertex 54.854 12.9124 5
    endloop
  endfacet
  facet normal 0 0 1
    outer loop
      vertex 54.9651 14 5
      vertex 40 0.00913759 5
      vertex 54.9635 13.9537 5
    endloop
  endfacet
  facet normal 0 0 1
    outer loop
      vertex 49.0451 12.0611 5
      vertex 40 0.00913759 5
      vertex 54.9651 14 5
    endloop
  endfacet
  facet normal 0 0 1
    outer loop
      vertex 49.8861 14 5
      vertex 49.7553 13.4549 5
      vertex 54.9651 14 5
    endloop
  endfacet
  facet normal 0 0 1
    outer loop
      vertex 49.7553 13.4549 5
      vertex 49.455 12.73 5
      vertex 54.9651 14 5
    endloop
  endfacet
  facet normal 0 0 1
    outer loop
      vertex 47.9389 10.9549 5
      vertex 47.27 10.545 5
      vertex 40 0.00913759 5
    endloop
  endfacet
  facet normal 0 0 1
    outer loop
      vertex 49.455 12.73 5
      vertex 49.0451 12.0611 5
      vertex 54.9651 14 5
    endloop
  endfacet
  facet normal 0 0 1
    outer loop
      vertex 48.5355 11.4645 5
      vertex 40 0.00913759 5
      vertex 49.0451 12.0611 5
    endloop
  endfacet
  facet normal 0 0 1
    outer loop
      vertex 44.9 10 5
      vertex 15.1 10 5
      vertex 40 0.00913759 5
    endloop
  endfacet
  facet normal 0 0 1
    outer loop
      vertex 46.5451 10.2447 5
      vertex 40 0.00913759 5
      vertex 47.27 10.545 5
    endloop
  endfacet
  facet normal 0 0 1
    outer loop
      vertex 45.7822 10.0616 5
      vertex 40 0.00913759 5
      vertex 46.5451 10.2447 5
    endloop
  endfacet
  facet normal 0 0 1
    outer loop
      vertex 45 10 5
      vertex 40 0.00913759 5
      vertex 45.7822 10.0616 5
    endloop
  endfacet
  facet normal 0 0 1
    outer loop
      vertex 44.9 10 5
      vertex 40 0.00913759 5
      vertex 45 10 5
    endloop
  endfacet
  facet normal 0 0 1
    outer loop
      vertex 44.9 10.0079 5
      vertex 44.9 10 5
      vertex 45 10 5
    endloop
  endfacet
  facet normal 0 0 1
    outer loop
      vertex 15.1 0 5
      vertex 40 0 5
      vertex 15.1 10 5
    endloop
  endfacet
  facet normal 0 0 1
    outer loop
      vertex 48.5355 11.4645 5
      vertex 47.9389 10.9549 5
      vertex 40 0.00913759 5
    endloop
  endfacet
  facet normal 1 0 0
    outer loop
      vertex 40 0 5
      vertex 40 0 0
      vertex 40 0.00913759 0
    endloop
  endfacet
  facet normal 1 0 0
    outer loop
      vertex 40 0.00913759 5
      vertex 40 0 5
      vertex 40 0.00913759 0
    endloop
  endfacet
  facet normal -1.69664e-015 -1 0
    outer loop
      vertex 40 0.00913759 5
      vertex 40 0.00913759 0
      vertex 40.5235 0.00913759 0
    endloop
  endfacet
  facet normal -1.69664e-015 -1 0
    outer loop
      vertex 40.5235 0.00913759 5
      vertex 40 0.00913759 5
      vertex 40.5235 0.00913759 0
    endloop
  endfacet
  facet normal 0.0697565 -0.997564 0
    outer loop
      vertex 40.5235 0.00913759 5
      vertex 40.5235 0.00913759 0
      vertex 41.5679 0.0821716 0
    endloop
  endfacet
  facet normal 0.0697565 -0.997564 0
    outer loop
      vertex 41.5679 0.0821716 5
      vertex 40.5235 0.00913759 5
      vertex 41.5679 0.0821716 0
    endloop
  endfacet
  facet normal 0.139173 -0.990268 0
    outer loop
      vertex 41.5679 0.0821716 5
      vertex 41.5679 0.0821716 0
      vertex 42.6047 0.227884 0
    endloop
  endfacet
  facet normal 0.139173 -0.990268 0
    outer loop
      vertex 42.6047 0.227884 5
      vertex 41.5679 0.0821716 5
      vertex 42.6047 0.227884 0
    endloop
  endfacet
  facet normal 0.207912 -0.978148 0
    outer loop
      vertex 42.6047 0.227884 5
      vertex 42.6047 0.227884 0
      vertex 43.6288 0.445564 0
    endloop
  endfacet
  facet normal 0.207912 -0.978148 0
    outer loop
      vertex 43.6288 0.445564 5
      vertex 42.6047 0.227884 5
      vertex 43.6288 0.445564 0
    endloop
  endfacet
  facet normal 0.275637 -0.961262 0
    outer loop
      vertex 43.6288 0.445564 5
      vertex 43.6288 0.445564 0
      vertex 44.6353 0.734152 0
    endloop
  endfacet
  facet normal 0.275637 -0.961262 0
    outer loop
      vertex 44.6353 0.734152 5
      vertex 43.6288 0.445564 5
      vertex 44.6353 0.734152 0
    endloop
  endfacet
  facet normal 0.34202 -0.939693 0
    outer loop
      vertex 44.6353 0.734152 5
      vertex 44.6353 0.734152 0
      vertex 45.6191 1.09224 0
    endloop
  endfacet
  facet normal 0.34202 -0.939693 0
    outer loop
      vertex 45.6191 1.09224 5
      vertex 44.6353 0.734152 5
      vertex 45.6191 1.09224 0
    endloop
  endfacet
  facet normal 0.406737 -0.913545 0
    outer loop
      vertex 45.6191 1.09224 5
      vertex 45.6191 1.09224 0
      vertex 46.5756 1.51809 0
    endloop
  endfacet
  facet normal 0.406737 -0.913545 0
    outer loop
      vertex 46.5756 1.51809 5
      vertex 45.6191 1.09224 5
      vertex 46.5756 1.51809 0
    endloop
  endfacet
  facet normal 0.469472 -0.882948 0
    outer loop
      vertex 46.5756 1.51809 5
      vertex 46.5756 1.51809 0
      vertex 47.5 2.00962 0
    endloop
  endfacet
  facet normal 0.469472 -0.882948 0
    outer loop
      vertex 47.5 2.00962 5
      vertex 46.5756 1.51809 5
      vertex 47.5 2.00962 0
    endloop
  endfacet
  facet normal 0.529919 -0.848048 0
    outer loop
      vertex 47.5 2.00962 5
      vertex 47.5 2.00962 0
      vertex 48.3879 2.56444 0
    endloop
  endfacet
  facet normal 0.529919 -0.848048 0
    outer loop
      vertex 48.3879 2.56444 5
      vertex 47.5 2.00962 5
      vertex 48.3879 2.56444 0
    endloop
  endfacet
  facet normal 0.587785 -0.809017 0
    outer loop
      vertex 48.3879 2.56444 5
      vertex 48.3879 2.56444 0
      vertex 49.2349 3.17984 0
    endloop
  endfacet
  facet normal 0.587785 -0.809017 0
    outer loop
      vertex 49.2349 3.17984 5
      vertex 48.3879 2.56444 5
      vertex 49.2349 3.17984 0
    endloop
  endfacet
  facet normal 0.642788 -0.766044 0
    outer loop
      vertex 49.2349 3.17984 5
      vertex 49.2349 3.17984 0
      vertex 50.037 3.85283 0
    endloop
  endfacet
  facet normal 0.642788 -0.766044 0
    outer loop
      vertex 50.037 3.85283 5
      vertex 49.2349 3.17984 5
      vertex 50.037 3.85283 0
    endloop
  endfacet
  facet normal 0.694658 -0.71934 0
    outer loop
      vertex 50.037 3.85283 5
      vertex 50.037 3.85283 0
      vertex 50.7901 4.58012 0
    endloop
  endfacet
  facet normal 0.694658 -0.71934 0
    outer loop
      vertex 50.7901 4.58012 5
      vertex 50.037 3.85283 5
      vertex 50.7901 4.58012 0
    endloop
  endfacet
  facet normal 0.743145 -0.669131 0
    outer loop
      vertex 50.7901 4.58012 5
      vertex 50.7901 4.58012 0
      vertex 51.4907 5.35819 0
    endloop
  endfacet
  facet normal 0.743145 -0.669131 0
    outer loop
      vertex 51.4907 5.35819 5
      vertex 50.7901 4.58012 5
      vertex 51.4907 5.35819 0
    endloop
  endfacet
  facet normal 0.788011 -0.615661 0
    outer loop
      vertex 51.4907 5.35819 5
      vertex 51.4907 5.35819 0
      vertex 52.1353 6.18322 0
    endloop
  endfacet
  facet normal 0.788011 -0.615661 0
    outer loop
      vertex 52.1353 6.18322 5
      vertex 51.4907 5.35819 5
      vertex 52.1353 6.18322 0
    endloop
  endfacet
  facet normal 0.829038 -0.559193 0
    outer loop
      vertex 52.1353 6.18322 5
      vertex 52.1353 6.18322 0
      vertex 52.7207 7.05121 0
    endloop
  endfacet
  facet normal 0.829038 -0.559193 0
    outer loop
      vertex 52.7207 7.05121 5
      vertex 52.1353 6.18322 5
      vertex 52.7207 7.05121 0
    endloop
  endfacet
  facet normal 0.866025 -0.5 0
    outer loop
      vertex 52.7207 7.05121 5
      vertex 52.7207 7.05121 0
      vertex 53.2442 7.95793 0
    endloop
  endfacet
  facet normal 0.866025 -0.5 0
    outer loop
      vertex 53.2442 7.95793 5
      vertex 52.7207 7.05121 5
      vertex 53.2442 7.95793 0
    endloop
  endfacet
  facet normal 0.898794 -0.438371 0
    outer loop
      vertex 53.2442 7.95793 5
      vertex 53.2442 7.95793 0
      vertex 53.7032 8.89895 0
    endloop
  endfacet
  facet normal 0.898794 -0.438371 0
    outer loop
      vertex 53.7032 8.89895 5
      vertex 53.2442 7.95793 5
      vertex 53.7032 8.89895 0
    endloop
  endfacet
  facet normal 0.927184 -0.374607 0
    outer loop
      vertex 53.7032 8.89895 5
      vertex 53.7032 8.89895 0
      vertex 54.0954 9.8697 0
    endloop
  endfacet
  facet normal 0.927184 -0.374607 0
    outer loop
      vertex 54.0954 9.8697 5
      vertex 53.7032 8.89895 5
      vertex 54.0954 9.8697 0
    endloop
  endfacet
  facet normal 0.951057 -0.309017 0
    outer loop
      vertex 54.0954 9.8697 5
      vertex 54.0954 9.8697 0
      vertex 54.4189 10.8654 0
    endloop
  endfacet
  facet normal 0.951057 -0.309017 0
    outer loop
      vertex 54.4189 10.8654 5
      vertex 54.0954 9.8697 5
      vertex 54.4189 10.8654 0
    endloop
  endfacet
  facet normal 0.970296 -0.241922 0
    outer loop
      vertex 54.4189 10.8654 5
      vertex 54.4189 10.8654 0
      vertex 54.6722 11.8813 0
    endloop
  endfacet
  facet normal 0.970296 -0.241922 0
    outer loop
      vertex 54.6722 11.8813 5
      vertex 54.4189 10.8654 5
      vertex 54.6722 11.8813 0
    endloop
  endfacet
  facet normal 0.984808 -0.173648 0
    outer loop
      vertex 54.6722 11.8813 5
      vertex 54.6722 11.8813 0
      vertex 54.854 12.9124 0
    endloop
  endfacet
  facet normal 0.984808 -0.173648 0
    outer loop
      vertex 54.854 12.9124 5
      vertex 54.6722 11.8813 5
      vertex 54.854 12.9124 0
    endloop
  endfacet
  facet normal 0.994522 -0.104528 0
    outer loop
      vertex 54.854 12.9124 5
      vertex 54.854 12.9124 0
      vertex 54.9635 13.9537 0
    endloop
  endfacet
  facet normal 0.994522 -0.104528 0
    outer loop
      vertex 54.9635 13.9537 5
      vertex 54.854 12.9124 5
      vertex 54.9635 13.9537 0
    endloop
  endfacet
  facet normal 0.999391 -0.0348995 0
    outer loop
      vertex 54.9635 13.9537 5
      vertex 54.9635 13.9537 0
      vertex 54.9651 14 0
    endloop
  endfacet
  facet normal 0.999391 -0.0348995 0
    outer loop
      vertex 54.9651 14 5
      vertex 54.9635 13.9537 5
      vertex 54.9651 14 0
    endloop
  endfacet
  facet normal 0 1 0
    outer loop
      vertex 49.8861 14 12
      vertex 49.8861 14 5
      vertex 45 14 12
    endloop
  endfacet
  facet normal 0 1 0
    outer loop
      vertex 54.9651 14 0
      vertex 49.8861 14 5
      vertex 54.9651 14 5
    endloop
  endfacet
  facet normal 0 1 0
    outer loop
      vertex 46.1247 14 0
      vertex 49.8861 14 5
      vertex 54.9651 14 0
    endloop
  endfacet
  facet normal 0 1 0
    outer loop
      vertex 46.1247 14 7
      vertex 49.8861 14 5
      vertex 46.1247 14 0
    endloop
  endfacet
  facet normal 0 1 0
    outer loop
      vertex 45 14 12
      vertex 49.8861 14 5
      vertex 46.1247 14 7
    endloop
  endfacet
  facet normal 0 1 0
    outer loop
      vertex 45 14 7
      vertex 45 14 12
      vertex 46.1247 14 7
    endloop
  endfacet
  facet normal -0.748511 0.663123 0
    outer loop
      vertex 46.1247 14 7
      vertex 46.1247 14 0
      vertex 45.8805 13.7244 7
    endloop
  endfacet
  facet normal -0.748511 0.663123 0
    outer loop
      vertex 45.8805 13.7244 7
      vertex 46.1247 14 0
      vertex 45.8805 13.7244 0
    endloop
  endfacet
  facet normal -0.354605 0.935016 0
    outer loop
      vertex 45.8805 13.7244 7
      vertex 45.8805 13.7244 0
      vertex 45.1868 13.4613 7
    endloop
  endfacet
  facet normal -0.354605 0.935016 0
    outer loop
      vertex 45.1868 13.4613 7
      vertex 45.8805 13.7244 0
      vertex 45.1868 13.4613 0
    endloop
  endfacet
  facet normal 0.120537 0.992709 0
    outer loop
      vertex 45.1868 13.4613 7
      vertex 45.1868 13.4613 0
      vertex 44.4504 13.5507 7
    endloop
  endfacet
  facet normal 0.120537 0.992709 0
    outer loop
      vertex 44.4504 13.5507 7
      vertex 45.1868 13.4613 0
      vertex 44.4504 13.5507 0
    endloop
  endfacet
  facet normal 0.568065 0.822984 0
    outer loop
      vertex 44.4504 13.5507 7
      vertex 44.4504 13.5507 0
      vertex 43.8398 13.9722 7
    endloop
  endfacet
  facet normal 0.568065 0.822984 0
    outer loop
      vertex 43.8398 13.9722 7
      vertex 44.4504 13.5507 0
      vertex 43.8398 13.9722 0
    endloop
  endfacet
  facet normal 0.885456 0.464723 0
    outer loop
      vertex 43.495 14.6291 7
      vertex 43.8398 13.9722 7
      vertex 43.8398 13.9722 0
    endloop
  endfacet
  facet normal 0.885456 0.464723 0
    outer loop
      vertex 43.495 14.6291 0
      vertex 43.495 14.6291 7
      vertex 43.8398 13.9722 0
    endloop
  endfacet
  facet normal 1 0 0
    outer loop
      vertex 43.495 15.3709 0
      vertex 43.495 15.3709 7
      vertex 43.495 14.6291 7
    endloop
  endfacet
  facet normal 1 0 0
    outer loop
      vertex 43.495 14.6291 0
      vertex 43.495 15.3709 0
      vertex 43.495 14.6291 7
    endloop
  endfacet
  facet normal 0.885456 -0.464723 0
    outer loop
      vertex 43.8398 16.0278 0
      vertex 43.8398 16.0278 7
      vertex 43.495 15.3709 7
    endloop
  endfacet
  facet normal 0.885456 -0.464723 0
    outer loop
      vertex 43.495 15.3709 0
      vertex 43.8398 16.0278 0
      vertex 43.495 15.3709 7
    endloop
  endfacet
  facet normal 0.568065 -0.822984 0
    outer loop
      vertex 44.4504 16.4493 0
      vertex 44.4504 16.4493 7
      vertex 43.8398 16.0278 7
    endloop
  endfacet
  facet normal 0.568065 -0.822984 0
    outer loop
      vertex 43.8398 16.0278 0
      vertex 44.4504 16.4493 0
      vertex 43.8398 16.0278 7
    endloop
  endfacet
  facet normal 0.120537 -0.992709 0
    outer loop
      vertex 45.1868 16.5387 0
      vertex 45.1868 16.5387 7
      vertex 44.4504 16.4493 7
    endloop
  endfacet
  facet normal 0.120537 -0.992709 0
    outer loop
      vertex 44.4504 16.4493 0
      vertex 45.1868 16.5387 0
      vertex 44.4504 16.4493 7
    endloop
  endfacet
  facet normal -0.354605 -0.935016 0
    outer loop
      vertex 45.8805 16.2756 0
      vertex 45.8805 16.2756 7
      vertex 45.1868 16.5387 7
    endloop
  endfacet
  facet normal -0.354605 -0.935016 0
    outer loop
      vertex 45.1868 16.5387 0
      vertex 45.8805 16.2756 0
      vertex 45.1868 16.5387 7
    endloop
  endfacet
  facet normal -0.748511 -0.663123 0
    outer loop
      vertex 46.1247 16 7
      vertex 45.8805 16.2756 7
      vertex 46.1247 16 0
    endloop
  endfacet
  facet normal -0.748511 -0.663123 0
    outer loop
      vertex 46.1247 16 0
      vertex 45.8805 16.2756 7
      vertex 45.8805 16.2756 0
    endloop
  endfacet
  facet normal 0 -1 0
    outer loop
      vertex 46.1247 16 7
      vertex 46.1247 16 0
      vertex 54.9651 16 0
    endloop
  endfacet
  facet normal 0 -1 0
    outer loop
      vertex 49.8861 16 5
      vertex 46.1247 16 7
      vertex 54.9651 16 0
    endloop
  endfacet
  facet normal 0 -1 0
    outer loop
      vertex 54.9651 16 5
      vertex 49.8861 16 5
      vertex 54.9651 16 0
    endloop
  endfacet
  facet normal 0 -1 0
    outer loop
      vertex 45 16 12
      vertex 46.1247 16 7
      vertex 49.8861 16 12
    endloop
  endfacet
  facet normal 0 -1 0
    outer loop
      vertex 49.8861 16 5
      vertex 49.8861 16 12
      vertex 46.1247 16 7
    endloop
  endfacet
  facet normal 0 -1 0
    outer loop
      vertex 45 16 7
      vertex 46.1247 16 7
      vertex 45 16 12
    endloop
  endfacet
  facet normal 0.999391 0.0348995 0
    outer loop
      vertex 54.9651 16 0
      vertex 54.9635 16.0463 0
      vertex 54.9635 16.0463 5
    endloop
  endfacet
  facet normal 0.999391 0.0348995 0
    outer loop
      vertex 54.9651 16 5
      vertex 54.9651 16 0
      vertex 54.9635 16.0463 5
    endloop
  endfacet
  facet normal 0.994522 0.104528 0
    outer loop
      vertex 54.9635 16.0463 0
      vertex 54.854 17.0876 0
      vertex 54.854 17.0876 5
    endloop
  endfacet
  facet normal 0.994522 0.104528 0
    outer loop
      vertex 54.9635 16.0463 5
      vertex 54.9635 16.0463 0
      vertex 54.854 17.0876 5
    endloop
  endfacet
  facet normal 0.984808 0.173648 0
    outer loop
      vertex 54.854 17.0876 0
      vertex 54.6722 18.1187 0
      vertex 54.6722 18.1187 5
    endloop
  endfacet
  facet normal 0.984808 0.173648 0
    outer loop
      vertex 54.854 17.0876 5
      vertex 54.854 17.0876 0
      vertex 54.6722 18.1187 5
    endloop
  endfacet
  facet normal 0.970296 0.241922 0
    outer loop
      vertex 54.6722 18.1187 0
      vertex 54.4189 19.1346 0
      vertex 54.4189 19.1346 5
    endloop
  endfacet
  facet normal 0.970296 0.241922 0
    outer loop
      vertex 54.6722 18.1187 5
      vertex 54.6722 18.1187 0
      vertex 54.4189 19.1346 5
    endloop
  endfacet
  facet normal 0.951057 0.309017 0
    outer loop
      vertex 54.4189 19.1346 0
      vertex 54.0954 20.1303 0
      vertex 54.0954 20.1303 5
    endloop
  endfacet
  facet normal 0.951057 0.309017 0
    outer loop
      vertex 54.4189 19.1346 5
      vertex 54.4189 19.1346 0
      vertex 54.0954 20.1303 5
    endloop
  endfacet
  facet normal 0.927184 0.374607 0
    outer loop
      vertex 54.0954 20.1303 0
      vertex 53.7032 21.101 0
      vertex 53.7032 21.101 5
    endloop
  endfacet
  facet normal 0.927184 0.374607 0
    outer loop
      vertex 54.0954 20.1303 5
      vertex 54.0954 20.1303 0
      vertex 53.7032 21.101 5
    endloop
  endfacet
  facet normal 0.898794 0.438371 0
    outer loop
      vertex 53.7032 21.101 0
      vertex 53.2442 22.0421 0
      vertex 53.2442 22.0421 5
    endloop
  endfacet
  facet normal 0.898794 0.438371 0
    outer loop
      vertex 53.7032 21.101 5
      vertex 53.7032 21.101 0
      vertex 53.2442 22.0421 5
    endloop
  endfacet
  facet normal 0.866025 0.5 0
    outer loop
      vertex 53.2442 22.0421 0
      vertex 52.7207 22.9488 0
      vertex 52.7207 22.9488 5
    endloop
  endfacet
  facet normal 0.866025 0.5 0
    outer loop
      vertex 53.2442 22.0421 5
      vertex 53.2442 22.0421 0
      vertex 52.7207 22.9488 5
    endloop
  endfacet
  facet normal 0.829038 0.559193 0
    outer loop
      vertex 52.7207 22.9488 0
      vertex 52.1353 23.8168 0
      vertex 52.1353 23.8168 5
    endloop
  endfacet
  facet normal 0.829038 0.559193 0
    outer loop
      vertex 52.7207 22.9488 5
      vertex 52.7207 22.9488 0
      vertex 52.1353 23.8168 5
    endloop
  endfacet
  facet normal 0.788011 0.615661 0
    outer loop
      vertex 52.1353 23.8168 0
      vertex 51.4907 24.6418 0
      vertex 51.4907 24.6418 5
    endloop
  endfacet
  facet normal 0.788011 0.615661 0
    outer loop
      vertex 52.1353 23.8168 5
      vertex 52.1353 23.8168 0
      vertex 51.4907 24.6418 5
    endloop
  endfacet
  facet normal 0.743145 0.669131 0
    outer loop
      vertex 51.4907 24.6418 0
      vertex 50.7901 25.4199 0
      vertex 50.7901 25.4199 5
    endloop
  endfacet
  facet normal 0.743145 0.669131 0
    outer loop
      vertex 51.4907 24.6418 5
      vertex 51.4907 24.6418 0
      vertex 50.7901 25.4199 5
    endloop
  endfacet
  facet normal 0.694658 0.71934 0
    outer loop
      vertex 50.037 26.1472 0
      vertex 50.037 26.1472 5
      vertex 50.7901 25.4199 0
    endloop
  endfacet
  facet normal 0.694658 0.71934 0
    outer loop
      vertex 50.7901 25.4199 0
      vertex 50.037 26.1472 5
      vertex 50.7901 25.4199 5
    endloop
  endfacet
  facet normal 0.642788 0.766044 0
    outer loop
      vertex 49.2349 26.8202 0
      vertex 49.2349 26.8202 5
      vertex 50.037 26.1472 0
    endloop
  endfacet
  facet normal 0.642788 0.766044 0
    outer loop
      vertex 50.037 26.1472 0
      vertex 49.2349 26.8202 5
      vertex 50.037 26.1472 5
    endloop
  endfacet
  facet normal 0.587785 0.809017 0
    outer loop
      vertex 48.3879 27.4356 0
      vertex 48.3879 27.4356 5
      vertex 49.2349 26.8202 0
    endloop
  endfacet
  facet normal 0.587785 0.809017 0
    outer loop
      vertex 49.2349 26.8202 0
      vertex 48.3879 27.4356 5
      vertex 49.2349 26.8202 5
    endloop
  endfacet
  facet normal 0.529919 0.848048 0
    outer loop
      vertex 47.5 27.9904 0
      vertex 47.5 27.9904 5
      vertex 48.3879 27.4356 0
    endloop
  endfacet
  facet normal 0.529919 0.848048 0
    outer loop
      vertex 48.3879 27.4356 0
      vertex 47.5 27.9904 5
      vertex 48.3879 27.4356 5
    endloop
  endfacet
  facet normal 0.469472 0.882948 0
    outer loop
      vertex 46.5756 28.4819 0
      vertex 46.5756 28.4819 5
      vertex 47.5 27.9904 0
    endloop
  endfacet
  facet normal 0.469472 0.882948 0
    outer loop
      vertex 47.5 27.9904 0
      vertex 46.5756 28.4819 5
      vertex 47.5 27.9904 5
    endloop
  endfacet
  facet normal 0.406737 0.913545 0
    outer loop
      vertex 45.6191 28.9078 0
      vertex 45.6191 28.9078 5
      vertex 46.5756 28.4819 0
    endloop
  endfacet
  facet normal 0.406737 0.913545 0
    outer loop
      vertex 46.5756 28.4819 0
      vertex 45.6191 28.9078 5
      vertex 46.5756 28.4819 5
    endloop
  endfacet
  facet normal 0.34202 0.939693 0
    outer loop
      vertex 44.6353 29.2658 0
      vertex 44.6353 29.2658 5
      vertex 45.6191 28.9078 0
    endloop
  endfacet
  facet normal 0.34202 0.939693 0
    outer loop
      vertex 45.6191 28.9078 0
      vertex 44.6353 29.2658 5
      vertex 45.6191 28.9078 5
    endloop
  endfacet
  facet normal 0.275637 0.961262 0
    outer loop
      vertex 43.6288 29.5544 0
      vertex 43.6288 29.5544 5
      vertex 44.6353 29.2658 0
    endloop
  endfacet
  facet normal 0.275637 0.961262 0
    outer loop
      vertex 44.6353 29.2658 0
      vertex 43.6288 29.5544 5
      vertex 44.6353 29.2658 5
    endloop
  endfacet
  facet normal 0.207912 0.978148 0
    outer loop
      vertex 42.6047 29.7721 0
      vertex 42.6047 29.7721 5
      vertex 43.6288 29.5544 0
    endloop
  endfacet
  facet normal 0.207912 0.978148 0
    outer loop
      vertex 43.6288 29.5544 0
      vertex 42.6047 29.7721 5
      vertex 43.6288 29.5544 5
    endloop
  endfacet
  facet normal 0.139173 0.990268 0
    outer loop
      vertex 41.5679 29.9178 0
      vertex 41.5679 29.9178 5
      vertex 42.6047 29.7721 0
    endloop
  endfacet
  facet normal 0.139173 0.990268 0
    outer loop
      vertex 42.6047 29.7721 0
      vertex 41.5679 29.9178 5
      vertex 42.6047 29.7721 5
    endloop
  endfacet
  facet normal 0.0697565 0.997564 0
    outer loop
      vertex 40.5235 29.9909 0
      vertex 40.5235 29.9909 5
      vertex 41.5679 29.9178 0
    endloop
  endfacet
  facet normal 0.0697565 0.997564 0
    outer loop
      vertex 41.5679 29.9178 0
      vertex 40.5235 29.9909 5
      vertex 41.5679 29.9178 5
    endloop
  endfacet
  facet normal 0 1 0
    outer loop
      vertex 40 29.9909 0
      vertex 40 29.9909 5
      vertex 40.5235 29.9909 0
    endloop
  endfacet
  facet normal 0 1 0
    outer loop
      vertex 40.5235 29.9909 0
      vertex 40 29.9909 5
      vertex 40.5235 29.9909 5
    endloop
  endfacet
  facet normal 1 0 0
    outer loop
      vertex 40 29.9909 5
      vertex 40 29.9909 0
      vertex 40 30 0
    endloop
  endfacet
  facet normal 1 0 0
    outer loop
      vertex 40 30 5
      vertex 40 29.9909 5
      vertex 40 30 0
    endloop
  endfacet
  facet normal 0 0 1
    outer loop
      vertex 45.7822 19.9384 5
      vertex 54.0954 20.1303 5
      vertex 45 20 5
    endloop
  endfacet
  facet normal 0 0 1
    outer loop
      vertex 44.9 20 5
      vertex 44.9 19.9921 5
      vertex 45 20 5
    endloop
  endfacet
  facet normal 0 0 1
    outer loop
      vertex 46.5451 19.7553 5
      vertex 54.6722 18.1187 5
      vertex 45.7822 19.9384 5
    endloop
  endfacet
  facet normal 0 0 1
    outer loop
      vertex 54.0954 20.1303 5
      vertex 44.9 20 5
      vertex 45 20 5
    endloop
  endfacet
  facet normal 0 0 1
    outer loop
      vertex 47.27 19.455 5
      vertex 54.854 17.0876 5
      vertex 46.5451 19.7553 5
    endloop
  endfacet
  facet normal 0 0 1
    outer loop
      vertex 47.9389 19.0451 5
      vertex 54.9651 16 5
      vertex 47.27 19.455 5
    endloop
  endfacet
  facet normal 0 0 1
    outer loop
      vertex 48.5355 18.5355 5
      vertex 54.9651 16 5
      vertex 47.9389 19.0451 5
    endloop
  endfacet
  facet normal 0 0 1
    outer loop
      vertex 49.0451 17.9389 5
      vertex 54.9651 16 5
      vertex 48.5355 18.5355 5
    endloop
  endfacet
  facet normal 0 0 1
    outer loop
      vertex 49.455 17.27 5
      vertex 54.9651 16 5
      vertex 49.0451 17.9389 5
    endloop
  endfacet
  facet normal 0 0 1
    outer loop
      vertex 49.7553 16.5451 5
      vertex 54.9651 16 5
      vertex 49.455 17.27 5
    endloop
  endfacet
  facet normal 0 0 1
    outer loop
      vertex 49.8861 16 5
      vertex 54.9651 16 5
      vertex 49.7553 16.5451 5
    endloop
  endfacet
  facet normal 0 0 1
    outer loop
      vertex 54.9651 16 5
      vertex 54.9635 16.0463 5
      vertex 47.27 19.455 5
    endloop
  endfacet
  facet normal 0 0 1
    outer loop
      vertex 54.9635 16.0463 5
      vertex 54.854 17.0876 5
      vertex 47.27 19.455 5
    endloop
  endfacet
  facet normal 0 0 1
    outer loop
      vertex 54.854 17.0876 5
      vertex 54.6722 18.1187 5
      vertex 46.5451 19.7553 5
    endloop
  endfacet
  facet normal 0 0 1
    outer loop
      vertex 54.6722 18.1187 5
      vertex 54.4189 19.1346 5
      vertex 45.7822 19.9384 5
    endloop
  endfacet
  facet normal 0 0 1
    outer loop
      vertex 54.4189 19.1346 5
      vertex 54.0954 20.1303 5
      vertex 45.7822 19.9384 5
    endloop
  endfacet
  facet normal 0 0 1
    outer loop
      vertex 54.0954 20.1303 5
      vertex 53.7032 21.101 5
      vertex 44.9 20 5
    endloop
  endfacet
  facet normal 0 0 1
    outer loop
      vertex 53.7032 21.101 5
      vertex 53.2442 22.0421 5
      vertex 44.9 20 5
    endloop
  endfacet
  facet normal 0 0 1
    outer loop
      vertex 53.2442 22.0421 5
      vertex 52.7207 22.9488 5
      vertex 44.9 20 5
    endloop
  endfacet
  facet normal 0 0 1
    outer loop
      vertex 52.7207 22.9488 5
      vertex 52.1353 23.8168 5
      vertex 44.9 20 5
    endloop
  endfacet
  facet normal 0 0 1
    outer loop
      vertex 52.1353 23.8168 5
      vertex 51.4907 24.6418 5
      vertex 44.9 20 5
    endloop
  endfacet
  facet normal 0 0 1
    outer loop
      vertex 51.4907 24.6418 5
      vertex 50.7901 25.4199 5
      vertex 44.9 20 5
    endloop
  endfacet
  facet normal 0 0 1
    outer loop
      vertex 50.7901 25.4199 5
      vertex 50.037 26.1472 5
      vertex 44.9 20 5
    endloop
  endfacet
  facet normal 0 0 1
    outer loop
      vertex 50.037 26.1472 5
      vertex 49.2349 26.8202 5
      vertex 44.9 20 5
    endloop
  endfacet
  facet normal 0 0 1
    outer loop
      vertex 49.2349 26.8202 5
      vertex 48.3879 27.4356 5
      vertex 44.9 20 5
    endloop
  endfacet
  facet normal 0 0 1
    outer loop
      vertex 48.3879 27.4356 5
      vertex 47.5 27.9904 5
      vertex 44.9 20 5
    endloop
  endfacet
  facet normal 0 0 1
    outer loop
      vertex 47.5 27.9904 5
      vertex 46.5756 28.4819 5
      vertex 44.9 20 5
    endloop
  endfacet
  facet normal 0 0 1
    outer loop
      vertex 46.5756 28.4819 5
      vertex 45.6191 28.9078 5
      vertex 44.9 20 5
    endloop
  endfacet
  facet normal 0 0 1
    outer loop
      vertex 45.6191 28.9078 5
      vertex 44.6353 29.2658 5
      vertex 44.9 20 5
    endloop
  endfacet
  facet normal 0 0 1
    outer loop
      vertex 40 30 5
      vertex 15.1 30 5
      vertex 40 29.9909 5
    endloop
  endfacet
  facet normal 0 0 1
    outer loop
      vertex 15.1 20 5
      vertex 40 29.9909 5
      vertex 15.1 30 5
    endloop
  endfacet
  facet normal 0 0 1
    outer loop
      vertex 15.1 20 5
      vertex 40.5235 29.9909 5
      vertex 40 29.9909 5
    endloop
  endfacet
  facet normal 0 0 1
    outer loop
      vertex 15.1 20 5
      vertex 41.5679 29.9178 5
      vertex 40.5235 29.9909 5
    endloop
  endfacet
  facet normal 0 0 1
    outer loop
      vertex 15.1 20 5
      vertex 42.6047 29.7721 5
      vertex 41.5679 29.9178 5
    endloop
  endfacet
  facet normal 0 0 1
    outer loop
      vertex 15.1 20 5
      vertex 43.6288 29.5544 5
      vertex 42.6047 29.7721 5
    endloop
  endfacet
  facet normal 0 0 1
    outer loop
      vertex 15.1 20 5
      vertex 44.6353 29.2658 5
      vertex 43.6288 29.5544 5
    endloop
  endfacet
  facet normal 0 0 1
    outer loop
      vertex 15.1 20 5
      vertex 44.9 20 5
      vertex 44.6353 29.2658 5
    endloop
  endfacet
  facet normal -0.707107 0.707107 0
    outer loop
      vertex 9.97746 16.4695 15
      vertex 9.97746 16.4695 20
      vertex 10.1 16.592 15
    endloop
  endfacet
  facet normal -0.707107 0.707107 0
    outer loop
      vertex 10.1 16.592 15
      vertex 9.97746 16.4695 20
      vertex 10.1 16.592 20
    endloop
  endfacet
  facet normal 0 0 -1
    outer loop
      vertex 9.5 15 15
      vertex 9.62236 15.7725 15
      vertex 9.62236 14.2275 15
    endloop
  endfacet
  facet normal 0 0 -1
    outer loop
      vertex 9.62236 14.2275 15
      vertex 9.62236 15.7725 15
      vertex 9.97746 16.4695 15
    endloop
  endfacet
  facet normal 0 0 -1
    outer loop
      vertex 9.62236 14.2275 15
      vertex 9.97746 16.4695 15
      vertex 10.1 16.592 15
    endloop
  endfacet
  facet normal 0 0 -1
    outer loop
      vertex 9.62236 14.2275 15
      vertex 10.1 16.592 15
      vertex 10.1 13.408 15
    endloop
  endfacet
  facet normal 0 0 -1
    outer loop
      vertex 9.62236 14.2275 15
      vertex 10.1 13.408 15
      vertex 9.97746 13.5305 15
    endloop
  endfacet
  facet normal -0.707107 -0.707107 0
    outer loop
      vertex 9.97746 13.5305 15
      vertex 10.1 13.408 15
      vertex 9.97746 13.5305 20
    endloop
  endfacet
  facet normal -0.707107 -0.707107 0
    outer loop
      vertex 9.97746 13.5305 20
      vertex 10.1 13.408 15
      vertex 10.1 13.408 20
    endloop
  endfacet
  facet normal -0.987688 0.156434 0
    outer loop
      vertex 9.5 15 15
      vertex 9.5 15 20
      vertex 9.62236 15.7725 15
    endloop
  endfacet
  facet normal -0.987688 0.156434 0
    outer loop
      vertex 9.62236 15.7725 15
      vertex 9.5 15 20
      vertex 9.62236 15.7725 20
    endloop
  endfacet
  facet normal -0.891007 0.45399 0
    outer loop
      vertex 9.62236 15.7725 15
      vertex 9.62236 15.7725 20
      vertex 9.97746 16.4695 15
    endloop
  endfacet
  facet normal -0.891007 0.45399 0
    outer loop
      vertex 9.97746 16.4695 15
      vertex 9.62236 15.7725 20
      vertex 9.97746 16.4695 20
    endloop
  endfacet
  facet normal -0.891007 -0.45399 0
    outer loop
      vertex 9.62236 14.2275 15
      vertex 9.97746 13.5305 15
      vertex 9.62236 14.2275 20
    endloop
  endfacet
  facet normal -0.891007 -0.45399 0
    outer loop
      vertex 9.62236 14.2275 20
      vertex 9.97746 13.5305 15
      vertex 9.97746 13.5305 20
    endloop
  endfacet
  facet normal -0.987688 -0.156434 0
    outer loop
      vertex 9.5 15 15
      vertex 9.62236 14.2275 15
      vertex 9.5 15 20
    endloop
  endfacet
  facet normal -0.987688 -0.156434 0
    outer loop
      vertex 9.5 15 20
      vertex 9.62236 14.2275 15
      vertex 9.62236 14.2275 20
    endloop
  endfacet
  facet normal 0 1 0
    outer loop
      vertex 15.1 20 5
      vertex 15.1 20 11.9
      vertex 44.9 20 5
    endloop
  endfacet
  facet normal 0 1 0
    outer loop
      vertex 44.9 20 5
      vertex 15.1 20 11.9
      vertex 44.9 20 11.9
    endloop
  endfacet
  facet normal 0 0 1
    outer loop
      vertex 44.2178 10.0616 11.9
      vertex 15.1 10 11.9
      vertex 44.9 10 11.9
    endloop
  endfacet
  facet normal 0 0 1
    outer loop
      vertex 42.73 10.545 11.9
      vertex 42.0611 10.9549 11.9
      vertex 15.1 20 11.9
    endloop
  endfacet
  facet normal 0 0 1
    outer loop
      vertex 43.4549 10.2447 11.9
      vertex 15.1 10 11.9
      vertex 44.2178 10.0616 11.9
    endloop
  endfacet
  facet normal 0 0 1
    outer loop
      vertex 15.1 20 11.9
      vertex 15.1 10 11.9
      vertex 43.4549 10.2447 11.9
    endloop
  endfacet
  facet normal 0 0 1
    outer loop
      vertex 42.0611 10.9549 11.9
      vertex 41.4645 11.4645 11.9
      vertex 15.1 20 11.9
    endloop
  endfacet
  facet normal 0 0 1
    outer loop
      vertex 15.1 20 11.9
      vertex 43.4549 10.2447 11.9
      vertex 42.73 10.545 11.9
    endloop
  endfacet
  facet normal 0 0 1
    outer loop
      vertex 40.9549 12.0611 11.9
      vertex 15.1 20 11.9
      vertex 41.4645 11.4645 11.9
    endloop
  endfacet
  facet normal 0 0 1
    outer loop
      vertex 40.545 12.73 11.9
      vertex 15.1 20 11.9
      vertex 40.9549 12.0611 11.9
    endloop
  endfacet
  facet normal 0 0 1
    outer loop
      vertex 40.2447 13.4549 11.9
      vertex 15.1 20 11.9
      vertex 40.545 12.73 11.9
    endloop
  endfacet
  facet normal 0 0 1
    outer loop
      vertex 40.0616 14.2178 11.9
      vertex 15.1 20 11.9
      vertex 40.2447 13.4549 11.9
    endloop
  endfacet
  facet normal 0 0 1
    outer loop
      vertex 40 15 11.9
      vertex 15.1 20 11.9
      vertex 40.0616 14.2178 11.9
    endloop
  endfacet
  facet normal 0 0 1
    outer loop
      vertex 40.0616 15.7822 11.9
      vertex 15.1 20 11.9
      vertex 40 15 11.9
    endloop
  endfacet
  facet normal 0 0 1
    outer loop
      vertex 40.2447 16.5451 11.9
      vertex 15.1 20 11.9
      vertex 40.0616 15.7822 11.9
    endloop
  endfacet
  facet normal 0 0 1
    outer loop
      vertex 40.545 17.27 11.9
      vertex 15.1 20 11.9
      vertex 40.2447 16.5451 11.9
    endloop
  endfacet
  facet normal 0 0 1
    outer loop
      vertex 40.9549 17.9389 11.9
      vertex 15.1 20 11.9
      vertex 40.545 17.27 11.9
    endloop
  endfacet
  facet normal 0 0 1
    outer loop
      vertex 41.4645 18.5355 11.9
      vertex 15.1 20 11.9
      vertex 40.9549 17.9389 11.9
    endloop
  endfacet
  facet normal 0 0 1
    outer loop
      vertex 42.0611 19.0451 11.9
      vertex 15.1 20 11.9
      vertex 41.4645 18.5355 11.9
    endloop
  endfacet
  facet normal 0 0 1
    outer loop
      vertex 42.73 19.455 11.9
      vertex 15.1 20 11.9
      vertex 42.0611 19.0451 11.9
    endloop
  endfacet
  facet normal 0 0 1
    outer loop
      vertex 43.4549 19.7553 11.9
      vertex 15.1 20 11.9
      vertex 42.73 19.455 11.9
    endloop
  endfacet
  facet normal 0 0 1
    outer loop
      vertex 44.2178 19.9384 11.9
      vertex 15.1 20 11.9
      vertex 43.4549 19.7553 11.9
    endloop
  endfacet
  facet normal 0 0 1
    outer loop
      vertex 44.9 19.9921 11.9
      vertex 15.1 20 11.9
      vertex 44.2178 19.9384 11.9
    endloop
  endfacet
  facet normal 0 0 1
    outer loop
      vertex 44.9 20 11.9
      vertex 15.1 20 11.9
      vertex 44.9 19.9921 11.9
    endloop
  endfacet
  facet normal 0 0 1
    outer loop
      vertex 44.9 10.0079 11.9
      vertex 44.2178 10.0616 11.9
      vertex 44.9 10 11.9
    endloop
  endfacet
  facet normal 0 -1 0
    outer loop
      vertex 15.1 10 11.9
      vertex 15.1 10 5
      vertex 44.9 10 5
    endloop
  endfacet
  facet normal 0 -1 0
    outer loop
      vertex 44.9 10 11.9
      vertex 15.1 10 11.9
      vertex 44.9 10 5
    endloop
  endfacet
  facet normal 1 0 0
    outer loop
      vertex 44.9 10 11.9
      vertex 44.9 10 5
      vertex 44.9 10.0079 5
    endloop
  endfacet
  facet normal 1 0 0
    outer loop
      vertex 44.9 10.0079 11.9
      vertex 44.9 10 11.9
      vertex 44.9 10.0079 5
    endloop
  endfacet
  facet normal -0.0784591 -0.996917 0
    outer loop
      vertex 44.2178 10.0616 12
      vertex 44.2178 10.0616 11.9
      vertex 44.9 10.0079 11.9
    endloop
  endfacet
  facet normal -0.0784591 -0.996917 0
    outer loop
      vertex 45 10 12
      vertex 44.2178 10.0616 12
      vertex 44.9 10.0079 11.9
    endloop
  endfacet
  facet normal -0.0784591 -0.996917 0
    outer loop
      vertex 44.9 10.0079 5
      vertex 45 10 5
      vertex 44.9 10.0079 11.9
    endloop
  endfacet
  facet normal -0.0784591 -0.996917 0
    outer loop
      vertex 45 10 5
      vertex 45 10 12
      vertex 44.9 10.0079 11.9
    endloop
  endfacet
  facet normal 0.0784591 -0.996917 0
    outer loop
      vertex 45 10 12
      vertex 45 10 5
      vertex 45.7822 10.0616 5
    endloop
  endfacet
  facet normal 0.0784591 -0.996917 0
    outer loop
      vertex 45.7822 10.0616 12
      vertex 45 10 12
      vertex 45.7822 10.0616 5
    endloop
  endfacet
  facet normal 0.233445 -0.97237 0
    outer loop
      vertex 45.7822 10.0616 12
      vertex 45.7822 10.0616 5
      vertex 46.5451 10.2447 5
    endloop
  endfacet
  facet normal 0.233445 -0.97237 0
    outer loop
      vertex 46.5451 10.2447 12
      vertex 45.7822 10.0616 12
      vertex 46.5451 10.2447 5
    endloop
  endfacet
  facet normal 0.382683 -0.92388 0
    outer loop
      vertex 46.5451 10.2447 12
      vertex 46.5451 10.2447 5
      vertex 47.27 10.545 5
    endloop
  endfacet
  facet normal 0.382683 -0.92388 0
    outer loop
      vertex 47.27 10.545 12
      vertex 46.5451 10.2447 12
      vertex 47.27 10.545 5
    endloop
  endfacet
  facet normal 0.522499 -0.85264 0
    outer loop
      vertex 47.27 10.545 12
      vertex 47.27 10.545 5
      vertex 47.9389 10.9549 5
    endloop
  endfacet
  facet normal 0.522499 -0.85264 0
    outer loop
      vertex 47.9389 10.9549 12
      vertex 47.27 10.545 12
      vertex 47.9389 10.9549 5
    endloop
  endfacet
  facet normal 0.649448 -0.760406 0
    outer loop
      vertex 47.9389 10.9549 12
      vertex 47.9389 10.9549 5
      vertex 48.5355 11.4645 5
    endloop
  endfacet
  facet normal 0.649448 -0.760406 0
    outer loop
      vertex 48.5355 11.4645 12
      vertex 47.9389 10.9549 12
      vertex 48.5355 11.4645 5
    endloop
  endfacet
  facet normal 0.760406 -0.649448 0
    outer loop
      vertex 48.5355 11.4645 12
      vertex 48.5355 11.4645 5
      vertex 49.0451 12.0611 5
    endloop
  endfacet
  facet normal 0.760406 -0.649448 0
    outer loop
      vertex 49.0451 12.0611 12
      vertex 48.5355 11.4645 12
      vertex 49.0451 12.0611 5
    endloop
  endfacet
  facet normal 0.85264 -0.522499 0
    outer loop
      vertex 49.0451 12.0611 12
      vertex 49.0451 12.0611 5
      vertex 49.455 12.73 5
    endloop
  endfacet
  facet normal 0.85264 -0.522499 0
    outer loop
      vertex 49.455 12.73 12
      vertex 49.0451 12.0611 12
      vertex 49.455 12.73 5
    endloop
  endfacet
  facet normal 0.92388 -0.382683 0
    outer loop
      vertex 49.455 12.73 12
      vertex 49.455 12.73 5
      vertex 49.7553 13.4549 5
    endloop
  endfacet
  facet normal 0.92388 -0.382683 0
    outer loop
      vertex 49.7553 13.4549 12
      vertex 49.455 12.73 12
      vertex 49.7553 13.4549 5
    endloop
  endfacet
  facet normal 0.97237 -0.233445 0
    outer loop
      vertex 49.7553 13.4549 12
      vertex 49.7553 13.4549 5
      vertex 49.8861 14 5
    endloop
  endfacet
  facet normal 0.97237 -0.233445 0
    outer loop
      vertex 49.8861 14 12
      vertex 49.7553 13.4549 12
      vertex 49.8861 14 5
    endloop
  endfacet
  facet normal 0 0 1
    outer loop
      vertex 40.0616 15.7822 12
      vertex 40 15 12
      vertex 40.0616 14.2178 12
    endloop
  endfacet
  facet normal 0 0 1
    outer loop
      vertex 40.545 12.73 12
      vertex 40.0616 15.7822 12
      vertex 40.2447 13.4549 12
    endloop
  endfacet
  facet normal 0 0 1
    outer loop
      vertex 40.2447 13.4549 12
      vertex 40.0616 15.7822 12
      vertex 40.0616 14.2178 12
    endloop
  endfacet
  facet normal 0 0 1
    outer loop
      vertex 40.9549 12.0611 12
      vertex 40.0616 15.7822 12
      vertex 40.545 12.73 12
    endloop
  endfacet
  facet normal 0 0 1
    outer loop
      vertex 41.4645 11.4645 12
      vertex 40.0616 15.7822 12
      vertex 40.9549 12.0611 12
    endloop
  endfacet
  facet normal 0 0 1
    outer loop
      vertex 42.0611 10.9549 12
      vertex 40.0616 15.7822 12
      vertex 41.4645 11.4645 12
    endloop
  endfacet
  facet normal 0 0 1
    outer loop
      vertex 42.73 10.545 12
      vertex 40.0616 15.7822 12
      vertex 42.0611 10.9549 12
    endloop
  endfacet
  facet normal 0 0 1
    outer loop
      vertex 43.4549 10.2447 12
      vertex 40.0616 15.7822 12
      vertex 42.73 10.545 12
    endloop
  endfacet
  facet normal 0 0 1
    outer loop
      vertex 44.2178 10.0616 12
      vertex 40.0616 15.7822 12
      vertex 43.4549 10.2447 12
    endloop
  endfacet
  facet normal 0 0 1
    outer loop
      vertex 45 10 12
      vertex 40.0616 15.7822 12
      vertex 44.2178 10.0616 12
    endloop
  endfacet
  facet normal 0 0 1
    outer loop
      vertex 45.7822 10.0616 12
      vertex 40.0616 15.7822 12
      vertex 45 10 12
    endloop
  endfacet
  facet normal 0 0 1
    outer loop
      vertex 46.5451 10.2447 12
      vertex 40.0616 15.7822 12
      vertex 45.7822 10.0616 12
    endloop
  endfacet
  facet normal 0 0 1
    outer loop
      vertex 47.27 10.545 12
      vertex 40.0616 15.7822 12
      vertex 46.5451 10.2447 12
    endloop
  endfacet
  facet normal 0 0 1
    outer loop
      vertex 47.9389 10.9549 12
      vertex 40.0616 15.7822 12
      vertex 47.27 10.545 12
    endloop
  endfacet
  facet normal 0 0 1
    outer loop
      vertex 48.5355 11.4645 12
      vertex 40.0616 15.7822 12
      vertex 47.9389 10.9549 12
    endloop
  endfacet
  facet normal 0 0 1
    outer loop
      vertex 49.0451 12.0611 12
      vertex 40.0616 15.7822 12
      vertex 48.5355 11.4645 12
    endloop
  endfacet
  facet normal 0 0 1
    outer loop
      vertex 45 14 12
      vertex 40.0616 15.7822 12
      vertex 49.0451 12.0611 12
    endloop
  endfacet
  facet normal 0 0 1
    outer loop
      vertex 49.455 12.73 12
      vertex 45 14 12
      vertex 49.0451 12.0611 12
    endloop
  endfacet
  facet normal 0 0 1
    outer loop
      vertex 44.2929 14.2929 12
      vertex 40.0616 15.7822 12
      vertex 45 14 12
    endloop
  endfacet
  facet normal 0 0 1
    outer loop
      vertex 44 15 12
      vertex 44.2929 15.7071 12
      vertex 40.0616 15.7822 12
    endloop
  endfacet
  facet normal 0 0 1
    outer loop
      vertex 45 16 12
      vertex 40.0616 15.7822 12
      vertex 44.2929 15.7071 12
    endloop
  endfacet
  facet normal 0 0 1
    outer loop
      vertex 49.7553 16.5451 12
      vertex 40.0616 15.7822 12
      vertex 45 16 12
    endloop
  endfacet
  facet normal 0 0 1
    outer loop
      vertex 49.7553 16.5451 12
      vertex 45 16 12
      vertex 49.8861 16 12
    endloop
  endfacet
  facet normal 0 0 1
    outer loop
      vertex 49.455 17.27 12
      vertex 40.0616 15.7822 12
      vertex 49.7553 16.5451 12
    endloop
  endfacet
  facet normal 0 0 1
    outer loop
      vertex 49.0451 17.9389 12
      vertex 40.0616 15.7822 12
      vertex 49.455 17.27 12
    endloop
  endfacet
  facet normal 0 0 1
    outer loop
      vertex 48.5355 18.5355 12
      vertex 40.0616 15.7822 12
      vertex 49.0451 17.9389 12
    endloop
  endfacet
  facet normal 0 0 1
    outer loop
      vertex 47.9389 19.0451 12
      vertex 40.0616 15.7822 12
      vertex 48.5355 18.5355 12
    endloop
  endfacet
  facet normal 0 0 1
    outer loop
      vertex 47.27 19.455 12
      vertex 40.0616 15.7822 12
      vertex 47.9389 19.0451 12
    endloop
  endfacet
  facet normal 0 0 1
    outer loop
      vertex 46.5451 19.7553 12
      vertex 40.0616 15.7822 12
      vertex 47.27 19.455 12
    endloop
  endfacet
  facet normal 0 0 1
    outer loop
      vertex 45.7822 19.9384 12
      vertex 40.0616 15.7822 12
      vertex 46.5451 19.7553 12
    endloop
  endfacet
  facet normal 0 0 1
    outer loop
      vertex 45 20 12
      vertex 40.0616 15.7822 12
      vertex 45.7822 19.9384 12
    endloop
  endfacet
  facet normal 0 0 1
    outer loop
      vertex 44.2178 19.9384 12
      vertex 40.0616 15.7822 12
      vertex 45 20 12
    endloop
  endfacet
  facet normal 0 0 1
    outer loop
      vertex 43.4549 19.7553 12
      vertex 40.0616 15.7822 12
      vertex 44.2178 19.9384 12
    endloop
  endfacet
  facet normal 0 0 1
    outer loop
      vertex 42.73 19.455 12
      vertex 40.0616 15.7822 12
      vertex 43.4549 19.7553 12
    endloop
  endfacet
  facet normal 0 0 1
    outer loop
      vertex 42.0611 19.0451 12
      vertex 40.0616 15.7822 12
      vertex 42.73 19.455 12
    endloop
  endfacet
  facet normal 0 0 1
    outer loop
      vertex 41.4645 18.5355 12
      vertex 40.0616 15.7822 12
      vertex 42.0611 19.0451 12
    endloop
  endfacet
  facet normal 0 0 1
    outer loop
      vertex 40.9549 17.9389 12
      vertex 40.0616 15.7822 12
      vertex 41.4645 18.5355 12
    endloop
  endfacet
  facet normal 0 0 1
    outer loop
      vertex 40.545 17.27 12
      vertex 40.0616 15.7822 12
      vertex 40.9549 17.9389 12
    endloop
  endfacet
  facet normal 0 0 1
    outer loop
      vertex 40.2447 16.5451 12
      vertex 40.0616 15.7822 12
      vertex 40.545 17.27 12
    endloop
  endfacet
  facet normal 0 0 1
    outer loop
      vertex 44.2929 14.2929 12
      vertex 44 15 12
      vertex 40.0616 15.7822 12
    endloop
  endfacet
  facet normal 0 0 1
    outer loop
      vertex 49.8861 14 12
      vertex 49.455 12.73 12
      vertex 49.7553 13.4549 12
    endloop
  endfacet
  facet normal 0 0 1
    outer loop
      vertex 49.8861 14 12
      vertex 45 14 12
      vertex 49.455 12.73 12
    endloop
  endfacet
  facet normal 0.382683 0.92388 0
    outer loop
      vertex 45 14 12
      vertex 45 14 7
      vertex 44.2929 14.2929 12
    endloop
  endfacet
  facet normal 0.382683 0.92388 0
    outer loop
      vertex 44.2929 14.2929 12
      vertex 45 14 7
      vertex 44.2929 14.2929 7
    endloop
  endfacet
  facet normal 0 0 -1
    outer loop
      vertex 43.8398 16.0278 7
      vertex 44.4504 16.4493 7
      vertex 43.495 15.3709 7
    endloop
  endfacet
  facet normal 0 0 -1
    outer loop
      vertex 43.495 15.3709 7
      vertex 44.4504 16.4493 7
      vertex 45.1868 16.5387 7
    endloop
  endfacet
  facet normal 0 0 -1
    outer loop
      vertex 45 16 7
      vertex 45.1868 16.5387 7
      vertex 45.8805 16.2756 7
    endloop
  endfacet
  facet normal 0 0 -1
    outer loop
      vertex 44.2929 15.7071 7
      vertex 45.1868 16.5387 7
      vertex 45 16 7
    endloop
  endfacet
  facet normal 0 0 -1
    outer loop
      vertex 44 15 7
      vertex 43.495 15.3709 7
      vertex 44.2929 15.7071 7
    endloop
  endfacet
  facet normal 0 0 -1
    outer loop
      vertex 43.495 15.3709 7
      vertex 45.1868 16.5387 7
      vertex 44.2929 15.7071 7
    endloop
  endfacet
  facet normal 0 0 -1
    outer loop
      vertex 43.495 15.3709 7
      vertex 44 15 7
      vertex 44.2929 14.2929 7
    endloop
  endfacet
  facet normal 0 0 -1
    outer loop
      vertex 45 14 7
      vertex 46.1247 14 7
      vertex 45.8805 13.7244 7
    endloop
  endfacet
  facet normal 0 0 -1
    outer loop
      vertex 45 14 7
      vertex 45.8805 13.7244 7
      vertex 45.1868 13.4613 7
    endloop
  endfacet
  facet normal 0 0 -1
    outer loop
      vertex 45 14 7
      vertex 45.1868 13.4613 7
      vertex 44.2929 14.2929 7
    endloop
  endfacet
  facet normal 0 0 -1
    outer loop
      vertex 44.2929 14.2929 7
      vertex 45.1868 13.4613 7
      vertex 44.4504 13.5507 7
    endloop
  endfacet
  facet normal 0 0 -1
    outer loop
      vertex 44.2929 14.2929 7
      vertex 44.4504 13.5507 7
      vertex 43.495 15.3709 7
    endloop
  endfacet
  facet normal 0 0 -1
    outer loop
      vertex 43.495 15.3709 7
      vertex 44.4504 13.5507 7
      vertex 43.8398 13.9722 7
    endloop
  endfacet
  facet normal 0 0 -1
    outer loop
      vertex 43.495 15.3709 7
      vertex 43.8398 13.9722 7
      vertex 43.495 14.6291 7
    endloop
  endfacet
  facet normal 0 0 -1
    outer loop
      vertex 45 16 7
      vertex 45.8805 16.2756 7
      vertex 46.1247 16 7
    endloop
  endfacet
  facet normal 0.382683 -0.92388 0
    outer loop
      vertex 45 16 7
      vertex 45 16 12
      vertex 44.2929 15.7071 12
    endloop
  endfacet
  facet normal 0.382683 -0.92388 0
    outer loop
      vertex 44.2929 15.7071 7
      vertex 45 16 7
      vertex 44.2929 15.7071 12
    endloop
  endfacet
  facet normal 0.97237 0.233445 0
    outer loop
      vertex 49.8861 16 5
      vertex 49.7553 16.5451 5
      vertex 49.7553 16.5451 12
    endloop
  endfacet
  facet normal 0.97237 0.233445 0
    outer loop
      vertex 49.8861 16 12
      vertex 49.8861 16 5
      vertex 49.7553 16.5451 12
    endloop
  endfacet
  facet normal 1 0 0
    outer loop
      vertex 44.9 19.9921 11.9
      vertex 44.9 19.9921 5
      vertex 44.9 20 5
    endloop
  endfacet
  facet normal 1 0 0
    outer loop
      vertex 44.9 20 11.9
      vertex 44.9 19.9921 11.9
      vertex 44.9 20 5
    endloop
  endfacet
  facet normal 0.92388 0.382683 0
    outer loop
      vertex 49.7553 16.5451 5
      vertex 49.455 17.27 5
      vertex 49.455 17.27 12
    endloop
  endfacet
  facet normal 0.92388 0.382683 0
    outer loop
      vertex 49.7553 16.5451 12
      vertex 49.7553 16.5451 5
      vertex 49.455 17.27 12
    endloop
  endfacet
  facet normal 0.85264 0.522499 0
    outer loop
      vertex 49.455 17.27 5
      vertex 49.0451 17.9389 5
      vertex 49.0451 17.9389 12
    endloop
  endfacet
  facet normal 0.85264 0.522499 0
    outer loop
      vertex 49.455 17.27 12
      vertex 49.455 17.27 5
      vertex 49.0451 17.9389 12
    endloop
  endfacet
  facet normal 0.760406 0.649448 0
    outer loop
      vertex 49.0451 17.9389 5
      vertex 48.5355 18.5355 5
      vertex 48.5355 18.5355 12
    endloop
  endfacet
  facet normal 0.760406 0.649448 0
    outer loop
      vertex 49.0451 17.9389 12
      vertex 49.0451 17.9389 5
      vertex 48.5355 18.5355 12
    endloop
  endfacet
  facet normal 0.649448 0.760406 0
    outer loop
      vertex 47.9389 19.0451 5
      vertex 47.9389 19.0451 12
      vertex 48.5355 18.5355 5
    endloop
  endfacet
  facet normal 0.649448 0.760406 0
    outer loop
      vertex 48.5355 18.5355 5
      vertex 47.9389 19.0451 12
      vertex 48.5355 18.5355 12
    endloop
  endfacet
  facet normal 0.522499 0.85264 0
    outer loop
      vertex 47.27 19.455 5
      vertex 47.27 19.455 12
      vertex 47.9389 19.0451 5
    endloop
  endfacet
  facet normal 0.522499 0.85264 0
    outer loop
      vertex 47.9389 19.0451 5
      vertex 47.27 19.455 12
      vertex 47.9389 19.0451 12
    endloop
  endfacet
  facet normal 0.382683 0.92388 0
    outer loop
      vertex 46.5451 19.7553 5
      vertex 46.5451 19.7553 12
      vertex 47.27 19.455 5
    endloop
  endfacet
  facet normal 0.382683 0.92388 0
    outer loop
      vertex 47.27 19.455 5
      vertex 46.5451 19.7553 12
      vertex 47.27 19.455 12
    endloop
  endfacet
  facet normal 0.233445 0.97237 0
    outer loop
      vertex 45.7822 19.9384 5
      vertex 45.7822 19.9384 12
      vertex 46.5451 19.7553 5
    endloop
  endfacet
  facet normal 0.233445 0.97237 0
    outer loop
      vertex 46.5451 19.7553 5
      vertex 45.7822 19.9384 12
      vertex 46.5451 19.7553 12
    endloop
  endfacet
  facet normal 0.0784591 0.996917 0
    outer loop
      vertex 45 20 5
      vertex 45 20 12
      vertex 45.7822 19.9384 5
    endloop
  endfacet
  facet normal 0.0784591 0.996917 0
    outer loop
      vertex 45.7822 19.9384 5
      vertex 45 20 12
      vertex 45.7822 19.9384 12
    endloop
  endfacet
  facet normal -0.0784591 0.996917 0
    outer loop
      vertex 44.2178 19.9384 11.9
      vertex 44.2178 19.9384 12
      vertex 44.9 19.9921 11.9
    endloop
  endfacet
  facet normal -0.0784591 0.996917 0
    outer loop
      vertex 44.9 19.9921 11.9
      vertex 44.2178 19.9384 12
      vertex 45 20 12
    endloop
  endfacet
  facet normal -0.0784591 0.996917 0
    outer loop
      vertex 44.9 19.9921 11.9
      vertex 45 20 12
      vertex 45 20 5
    endloop
  endfacet
  facet normal -0.0784591 0.996917 0
    outer loop
      vertex 44.9 19.9921 11.9
      vertex 45 20 5
      vertex 44.9 19.9921 5
    endloop
  endfacet
  facet normal -0.233445 0.97237 0
    outer loop
      vertex 43.4549 19.7553 11.9
      vertex 43.4549 19.7553 12
      vertex 44.2178 19.9384 11.9
    endloop
  endfacet
  facet normal -0.233445 0.97237 0
    outer loop
      vertex 44.2178 19.9384 11.9
      vertex 43.4549 19.7553 12
      vertex 44.2178 19.9384 12
    endloop
  endfacet
  facet normal -0.382683 0.92388 0
    outer loop
      vertex 42.73 19.455 11.9
      vertex 42.73 19.455 12
      vertex 43.4549 19.7553 11.9
    endloop
  endfacet
  facet normal -0.382683 0.92388 0
    outer loop
      vertex 43.4549 19.7553 11.9
      vertex 42.73 19.455 12
      vertex 43.4549 19.7553 12
    endloop
  endfacet
  facet normal -0.522499 0.85264 0
    outer loop
      vertex 42.0611 19.0451 11.9
      vertex 42.0611 19.0451 12
      vertex 42.73 19.455 11.9
    endloop
  endfacet
  facet normal -0.522499 0.85264 0
    outer loop
      vertex 42.73 19.455 11.9
      vertex 42.0611 19.0451 12
      vertex 42.73 19.455 12
    endloop
  endfacet
  facet normal -0.649448 0.760406 0
    outer loop
      vertex 41.4645 18.5355 11.9
      vertex 41.4645 18.5355 12
      vertex 42.0611 19.0451 11.9
    endloop
  endfacet
  facet normal -0.649448 0.760406 0
    outer loop
      vertex 42.0611 19.0451 11.9
      vertex 41.4645 18.5355 12
      vertex 42.0611 19.0451 12
    endloop
  endfacet
  facet normal -0.760406 0.649448 0
    outer loop
      vertex 40.9549 17.9389 11.9
      vertex 40.9549 17.9389 12
      vertex 41.4645 18.5355 11.9
    endloop
  endfacet
  facet normal -0.760406 0.649448 0
    outer loop
      vertex 41.4645 18.5355 11.9
      vertex 40.9549 17.9389 12
      vertex 41.4645 18.5355 12
    endloop
  endfacet
  facet normal -0.85264 0.522499 0
    outer loop
      vertex 40.545 17.27 11.9
      vertex 40.545 17.27 12
      vertex 40.9549 17.9389 11.9
    endloop
  endfacet
  facet normal -0.85264 0.522499 0
    outer loop
      vertex 40.9549 17.9389 11.9
      vertex 40.545 17.27 12
      vertex 40.9549 17.9389 12
    endloop
  endfacet
  facet normal -0.92388 0.382683 0
    outer loop
      vertex 40.2447 16.5451 11.9
      vertex 40.2447 16.5451 12
      vertex 40.545 17.27 11.9
    endloop
  endfacet
  facet normal -0.92388 0.382683 0
    outer loop
      vertex 40.545 17.27 11.9
      vertex 40.2447 16.5451 12
      vertex 40.545 17.27 12
    endloop
  endfacet
  facet normal -0.97237 0.233445 0
    outer loop
      vertex 40.0616 15.7822 11.9
      vertex 40.0616 15.7822 12
      vertex 40.2447 16.5451 11.9
    endloop
  endfacet
  facet normal -0.97237 0.233445 0
    outer loop
      vertex 40.2447 16.5451 11.9
      vertex 40.0616 15.7822 12
      vertex 40.2447 16.5451 12
    endloop
  endfacet
  facet normal -0.996917 0.0784591 0
    outer loop
      vertex 40 15 11.9
      vertex 40 15 12
      vertex 40.0616 15.7822 11.9
    endloop
  endfacet
  facet normal -0.996917 0.0784591 0
    outer loop
      vertex 40.0616 15.7822 11.9
      vertex 40 15 12
      vertex 40.0616 15.7822 12
    endloop
  endfacet
  facet normal -0.996917 -0.0784591 0
    outer loop
      vertex 40 15 11.9
      vertex 40.0616 14.2178 11.9
      vertex 40 15 12
    endloop
  endfacet
  facet normal -0.996917 -0.0784591 0
    outer loop
      vertex 40 15 12
      vertex 40.0616 14.2178 11.9
      vertex 40.0616 14.2178 12
    endloop
  endfacet
  facet normal -0.97237 -0.233445 0
    outer loop
      vertex 40.0616 14.2178 11.9
      vertex 40.2447 13.4549 11.9
      vertex 40.0616 14.2178 12
    endloop
  endfacet
  facet normal -0.97237 -0.233445 0
    outer loop
      vertex 40.0616 14.2178 12
      vertex 40.2447 13.4549 11.9
      vertex 40.2447 13.4549 12
    endloop
  endfacet
  facet normal -0.92388 -0.382683 0
    outer loop
      vertex 40.2447 13.4549 11.9
      vertex 40.545 12.73 11.9
      vertex 40.2447 13.4549 12
    endloop
  endfacet
  facet normal -0.92388 -0.382683 0
    outer loop
      vertex 40.2447 13.4549 12
      vertex 40.545 12.73 11.9
      vertex 40.545 12.73 12
    endloop
  endfacet
  facet normal -0.85264 -0.522499 0
    outer loop
      vertex 40.545 12.73 11.9
      vertex 40.9549 12.0611 11.9
      vertex 40.545 12.73 12
    endloop
  endfacet
  facet normal -0.85264 -0.522499 0
    outer loop
      vertex 40.545 12.73 12
      vertex 40.9549 12.0611 11.9
      vertex 40.9549 12.0611 12
    endloop
  endfacet
  facet normal -0.760406 -0.649448 0
    outer loop
      vertex 40.9549 12.0611 11.9
      vertex 41.4645 11.4645 11.9
      vertex 40.9549 12.0611 12
    endloop
  endfacet
  facet normal -0.760406 -0.649448 0
    outer loop
      vertex 40.9549 12.0611 12
      vertex 41.4645 11.4645 11.9
      vertex 41.4645 11.4645 12
    endloop
  endfacet
  facet normal -0.649448 -0.760406 0
    outer loop
      vertex 41.4645 11.4645 12
      vertex 41.4645 11.4645 11.9
      vertex 42.0611 10.9549 11.9
    endloop
  endfacet
  facet normal -0.649448 -0.760406 0
    outer loop
      vertex 42.0611 10.9549 12
      vertex 41.4645 11.4645 12
      vertex 42.0611 10.9549 11.9
    endloop
  endfacet
  facet normal -0.522499 -0.85264 0
    outer loop
      vertex 42.0611 10.9549 12
      vertex 42.0611 10.9549 11.9
      vertex 42.73 10.545 11.9
    endloop
  endfacet
  facet normal -0.522499 -0.85264 0
    outer loop
      vertex 42.73 10.545 12
      vertex 42.0611 10.9549 12
      vertex 42.73 10.545 11.9
    endloop
  endfacet
  facet normal -0.382683 -0.92388 0
    outer loop
      vertex 42.73 10.545 12
      vertex 42.73 10.545 11.9
      vertex 43.4549 10.2447 11.9
    endloop
  endfacet
  facet normal -0.382683 -0.92388 0
    outer loop
      vertex 43.4549 10.2447 12
      vertex 42.73 10.545 12
      vertex 43.4549 10.2447 11.9
    endloop
  endfacet
  facet normal -0.233445 -0.97237 0
    outer loop
      vertex 43.4549 10.2447 12
      vertex 43.4549 10.2447 11.9
      vertex 44.2178 10.0616 11.9
    endloop
  endfacet
  facet normal -0.233445 -0.97237 0
    outer loop
      vertex 44.2178 10.0616 12
      vertex 43.4549 10.2447 12
      vertex 44.2178 10.0616 11.9
    endloop
  endfacet
  facet normal 0.92388 -0.382683 0
    outer loop
      vertex 44.2929 15.7071 7
      vertex 44.2929 15.7071 12
      vertex 44 15 12
    endloop
  endfacet
  facet normal 0.92388 -0.382683 0
    outer loop
      vertex 44 15 7
      vertex 44.2929 15.7071 7
      vertex 44 15 12
    endloop
  endfacet
  facet normal 0.92388 0.382683 0
    outer loop
      vertex 44 15 12
      vertex 44.2929 14.2929 12
      vertex 44.2929 14.2929 7
    endloop
  endfacet
  facet normal 0.92388 0.382683 0
    outer loop
      vertex 44 15 7
      vertex 44 15 12
      vertex 44.2929 14.2929 7
    endloop
  endfacet
endsolid OpenSCAD_Model
