solid OpenSCAD_Model
  facet normal -1 0 0
    outer loop
      vertex 0 0 0
      vertex 0 0 50
      vertex 0 60 0
    endloop
  endfacet
  facet normal -1 0 0
    outer loop
      vertex 0 60 0
      vertex 0 0 50
      vertex 0 60 50
    endloop
  endfacet
  facet normal 0 -1 0
    outer loop
      vertex 0 0 50
      vertex 0 0 0
      vertex 50 0 0
    endloop
  endfacet
  facet normal 0 -1 0
    outer loop
      vertex 50 0 50
      vertex 0 0 50
      vertex 50 0 0
    endloop
  endfacet
  facet normal 0 0 -1
    outer loop
      vertex 0 0 0
      vertex 0 60 0
      vertex 50 0 0
    endloop
  endfacet
  facet normal 0 0 -1
    outer loop
      vertex 50 0 0
      vertex 0 60 0
      vertex 50 60 0
    endloop
  endfacet
  facet normal 0 1 0
    outer loop
      vertex 0 60 0
      vertex 0 60 50
      vertex 50 60 0
    endloop
  endfacet
  facet normal 0 1 0
    outer loop
      vertex 50 60 0
      vertex 0 60 50
      vertex 50 60 50
    endloop
  endfacet
  facet normal 0 0 1
    outer loop
      vertex 2 2 50
      vertex 0 0 50
      vertex 50 0 50
    endloop
  endfacet
  facet normal 0 0 1
    outer loop
      vertex 48 2 50
      vertex 2 2 50
      vertex 50 0 50
    endloop
  endfacet
  facet normal 0 0 1
    outer loop
      vertex 0 60 50
      vertex 0 0 50
      vertex 2 2 50
    endloop
  endfacet
  facet normal 0 0 1
    outer loop
      vertex 50 60 50
      vertex 0 60 50
      vertex 2 58 50
    endloop
  endfacet
  facet normal 0 0 1
    outer loop
      vertex 50 60 50
      vertex 48 58 50
      vertex 50 0 50
    endloop
  endfacet
  facet normal 0 0 1
    outer loop
      vertex 50 60 50
      vertex 2 58 50
      vertex 48 58 50
    endloop
  endfacet
  facet normal 0 0 1
    outer loop
      vertex 48 58 50
      vertex 48 2 50
      vertex 50 0 50
    endloop
  endfacet
  facet normal 0 0 1
    outer loop
      vertex 2 2 50
      vertex 2 58 50
      vertex 0 60 50
    endloop
  endfacet
  facet normal 1 0 0
    outer loop
      vertex 50 0 50
      vertex 50 0 0
      vertex 50 60 0
    endloop
  endfacet
  facet normal 1 0 0
    outer loop
      vertex 50 60 50
      vertex 50 0 50
      vertex 50 60 0
    endloop
  endfacet
  facet normal 1 0 0
    outer loop
      vertex 2 58 2
      vertex 2 58 50
      vertex 2 2 50
    endloop
  endfacet
  facet normal 1 0 0
    outer loop
      vertex 2 2 2
      vertex 2 58 2
      vertex 2 2 50
    endloop
  endfacet
  facet normal 0 1 0
    outer loop
      vertex 48 2 50
      vertex 48 2 2
      vertex 2 2 50
    endloop
  endfacet
  facet normal 0 1 0
    outer loop
      vertex 2 2 50
      vertex 48 2 2
      vertex 2 2 2
    endloop
  endfacet
  facet normal -1 0 0
    outer loop
      vertex 48 58 50
      vertex 48 58 2
      vertex 48 2 50
    endloop
  endfacet
  facet normal -1 0 0
    outer loop
      vertex 48 2 50
      vertex 48 58 2
      vertex 48 2 2
    endloop
  endfacet
  facet normal 0 -1 0
    outer loop
      vertex 48 58 2
      vertex 48 58 50
      vertex 2 58 50
    endloop
  endfacet
  facet normal 0 -1 0
    outer loop
      vertex 2 58 2
      vertex 48 58 2
      vertex 2 58 50
    endloop
  endfacet
  facet normal 0 0 1
    outer loop
      vertex 48 2 2
      vertex 48 58 2
      vertex 2 58 2
    endloop
  endfacet
  facet normal 0 0 1
    outer loop
      vertex 2 2 2
      vertex 48 2 2
      vertex 2 58 2
    endloop
  endfacet
endsolid OpenSCAD_Model
