999
Inkscape export via OpenSCAD DXF Export
  0
SECTION
  2
HEADER
  9
$ACADVER
  1
AC1014
  9
$HANDSEED
  5
FFFF
  9
$MEASUREMENT
 70
     1
  0
ENDSEC
  0
SECTION
  2
TABLES
  0
TABLE
  2
VPORT
  5
8
330
0
100
AcDbSymbolTable
 70
     4
  0
VPORT
  5
2E
330
8
100
AcDbSymbolTableRecord
100
AcDbViewportTableRecord
  2
*ACTIVE
 70
     0
 10
0.0
 20
0.0
 11
1.0
 21
1.0
 12
210.0
 22
148.5
 13
0.0
 23
0.0
 14
10.0
 24
10.0
 15
10.0
 25
10.0
 16
0.0
 26
0.0
 36
1.0
 17
0.0
 27
0.0
 37
0.0
 40
341.0
 41
1.24
 42
50.0
 43
0.0
 44
0.0
 50
0.0
 51
0.0
 71
     0
 72
   100
 73
     1
 74
     3
 75
     0
 76
     0
 77
     0
 78
     0
  0
ENDTAB
  0
TABLE
  2
LTYPE
  5
5
330
0
100
AcDbSymbolTable
 70
     1
  0
LTYPE
  5
14
330
5
100
AcDbSymbolTableRecord
100
AcDbLinetypeTableRecord
  2
BYBLOCK
 70
     0
  3

 72
    65
 73
     0
 40
0.0
  0
LTYPE
  5
15
330
5
100
AcDbSymbolTableRecord
100
AcDbLinetypeTableRecord
  2
BYLAYER
 70
     0
  3

 72
    65
 73
     0
 40
0.0
  0
LTYPE
  5
16
330
5
100
AcDbSymbolTableRecord
100
AcDbLinetypeTableRecord
  2
CONTINUOUS
 70
     0
  3
Solid line
 72
    65
 73
     0
 40
0.0
  0
ENDTAB
  0
TABLE
0
TABLE
2
LAYER
5
2
330
0
100
AcDbSymbolTable
70
1
0
LAYER
5
10
330
2
100
AcDbSymbolTableRecord
100
AcDbLayerTableRecord
2
Layer_1
70
0
62
7
6
CONTINUOUS
0
ENDTAB
0
ENDSEC
  0
ENDTAB
  0
TABLE
  2
STYLE
  5
3
330
0
100
AcDbSymbolTable
 70
     1
  0
STYLE
  5
11
330
3
100
AcDbSymbolTableRecord
100
AcDbTextStyleTableRecord
  2
STANDARD
 70
     0
 40
0.0
 41
1.0
 50
0.0
 71
     0
 42
2.5
  3
txt
  4

  0
ENDTAB
  0
TABLE
  2
VIEW
  5
6
330
0
100
AcDbSymbolTable
 70
     0
  0
ENDTAB
  0
TABLE
  2
UCS
  5
7
330
0
100
AcDbSymbolTable
 70
     0
  0
ENDTAB
  0
TABLE
  2
APPID
  5
9
330
0
100
AcDbSymbolTable
 70
     2
  0
APPID
  5
12
330
9
100
AcDbSymbolTableRecord
100
AcDbRegAppTableRecord
  2
ACAD
 70
     0
  0
ENDTAB
  0
TABLE
  2
DIMSTYLE
  5
A
330
0
100
AcDbSymbolTable
 70
     1
  0
DIMSTYLE
105
27
330
A
100
AcDbSymbolTableRecord
100
AcDbDimStyleTableRecord
  2
ISO-25
 70
     0
  3

  4

  5

  6

  7

 40
1.0
 41
2.5
 42
0.625
 43
3.75
 44
1.25
 45
0.0
 46
0.0
 47
0.0
 48
0.0
140
2.5
141
2.5
142
0.0
143
0.03937007874016
144
1.0
145
0.0
146
1.0
147
0.625
 71
     0
 72
     0
 73
     0
 74
     0
 75
     0
 76
     0
 77
     1
 78
     8
170
     0
171
     3
172
     1
173
     0
174
     0
175
     0
176
     0
177
     0
178
     0
270
     2
271
     2
272
     2
273
     2
274
     3
340
11
275
     0
280
     0
281
     0
282
     0
283
     0
284
     8
285
     0
286
     0
287
     3
288
     0
  0
ENDTAB
  0
TABLE
  2
BLOCK_RECORD
  5
1
330
0
100
AcDbSymbolTable
 70
     1
  0
BLOCK_RECORD
  5
1F
330
1
100
AcDbSymbolTableRecord
100
AcDbBlockTableRecord
  2
*MODEL_SPACE
  0
BLOCK_RECORD
  5
1B
330
1
100
AcDbSymbolTableRecord
100
AcDbBlockTableRecord
  2
*PAPER_SPACE
  0
ENDTAB
  0
ENDSEC
  0
SECTION
  2
BLOCKS
  0
BLOCK
  5
20
330
1F
100
AcDbEntity
  8
0
100
AcDbBlockBegin
  2
*MODEL_SPACE
 70
     0
 10
0.0
 20
0.0
 30
0.0
  3
*MODEL_SPACE
  1

  0
ENDBLK
  5
21
330
1F
100
AcDbEntity
  8
0
100
AcDbBlockEnd
  0
BLOCK
  5
1C
330
1B
100
AcDbEntity
 67
     1
  8
0
100
AcDbBlockBegin
  2
*PAPER_SPACE
  1

  0
ENDBLK
  5
1D
330
1B
100
AcDbEntity
 67
     1
  8
0
100
AcDbBlockEnd
  0
ENDSEC
  0
SECTION
  2
ENTITIES
0
DIMENSION
5
83
100
AcDbEntity
62
256
370
-1
6
ByLayer
1
total_width
3
Standard
70
0
71
5
72
1
41
1.0
100
AcDbAlignedDimension
13
25.441760
23
0.000000
33
0.0
14
95.562197
24
0.000000
34
0.0
50
0.000000
100
AcDbRotatedDimension
0
DIMENSION
5
83
100
AcDbEntity
62
256
370
-1
6
ByLayer
1
total_height
3
Standard
70
0
71
5
72
1
41
1.0
100
AcDbAlignedDimension
13
0.000000
23
21.496841
33
0.0
14
0.000000
24
98.447578
34
0.0
50
90.000000
100
AcDbRotatedDimension
0
DIMENSION
8
Layer_1
5
83
100
AcDbEntity
62
256
370
-1
6
ByLayer
1
Layer_1_width
3
Standard
70
0
71
5
72
1
41
1.0
100
AcDbAlignedDimension
13
25.441760
23
0.000000
33
0.0
14
95.562197
24
0.000000
34
0.0
50
0.000000
100
AcDbRotatedDimension
0
DIMENSION
8
Layer_1
5
83
100
AcDbEntity
62
256
370
-1
6
ByLayer
1
Layer_1_height
3
Standard
70
0
71
5
72
1
41
1.0
100
AcDbAlignedDimension
13
0.000000
23
21.496841
33
0.0
14
0.000000
24
98.447578
34
0.0
50
90.000000
100
AcDbRotatedDimension
0
LWPOLYLINE
100
AcDbPolyline
8
Layer_1
90
141
70
0
10
57.321086
20
21.877632
30
0.0
10
55.907837
20
22.590864
30
0.0
10
54.549651
20
23.469203
30
0.0
10
53.253610
20
24.505156
30
0.0
10
52.026798
20
25.691231
30
0.0
10
49.809192
20
28.483777
30
0.0
10
47.953498
20
31.786898
30
0.0
10
47.524633
20
32.790604
30
0.0
10
47.289295
20
33.701875
30
0.0
10
47.184928
20
36.584676
30
0.0
10
47.358632
20
39.604183
30
0.0
10
48.077193
20
42.314876
30
0.0
10
48.635673
20
44.144125
30
0.0
10
48.758907
20
44.854876
30
0.0
10
46.737753
20
43.858917
30
0.0
10
44.669117
20
42.997158
30
0.0
10
42.271620
20
42.203426
30
0.0
10
39.480790
20
41.597423
30
0.0
10
36.028119
20
41.570673
30
0.0
10
32.778892
20
41.783002
30
0.0
10
31.975119
20
42.031397
30
0.0
10
31.235283
20
42.464770
30
0.0
10
29.842977
20
43.657910
30
0.0
10
28.626856
20
45.371345
30
0.0
10
27.458159
20
47.830357
30
0.0
10
26.208121
20
51.260231
30
0.0
10
25.599246
20
53.628725
30
0.0
10
25.441760
20
56.340231
30
0.0
10
25.458329
20
57.961789
30
0.0
10
25.579384
20
59.061485
30
0.0
10
25.886739
20
60.035276
30
0.0
10
26.462211
20
61.279120
30
0.0
10
27.600402
20
63.206094
30
0.0
10
29.016900
20
64.856134
30
0.0
10
30.758551
20
66.274759
30
0.0
10
32.872200
20
67.507488
30
0.0
10
34.861860
20
68.419223
30
0.0
10
36.598268
20
69.021973
30
0.0
10
38.224797
20
69.355662
30
0.0
10
39.884824
20
69.460214
30
0.0
10
41.639671
20
69.463573
30
0.0
10
39.423526
20
71.650798
30
0.0
10
38.188720
20
72.908878
30
0.0
10
37.434410
20
73.848663
30
0.0
10
36.942886
20
74.800766
30
0.0
10
36.496433
20
76.095798
30
0.0
10
35.927807
20
78.498440
30
0.0
10
35.483119
20
81.449998
30
0.0
10
35.234084
20
84.345993
30
0.0
10
35.252412
20
86.581948
30
0.0
10
35.493476
20
87.781393
30
0.0
10
35.956596
20
89.011924
30
0.0
10
36.614629
20
90.238668
30
0.0
10
37.440429
20
91.426750
30
0.0
10
38.406853
20
92.541297
30
0.0
10
39.486757
20
93.547434
30
0.0
10
40.652998
20
94.410287
30
0.0
10
41.878431
20
95.094981
30
0.0
10
42.828736
20
95.496908
30
0.0
10
43.716380
20
95.723756
30
0.0
10
46.455530
20
95.839606
30
0.0
10
48.894985
20
95.722435
30
0.0
10
50.827923
20
95.317512
30
0.0
10
52.601765
20
94.511326
30
0.0
10
54.563933
20
93.190364
30
0.0
10
56.330732
20
91.778566
30
0.0
10
57.784107
20
90.407787
30
0.0
10
58.912828
20
89.089724
30
0.0
10
59.705661
20
87.836076
30
0.0
10
60.419262
20
86.679131
30
0.0
10
61.798872
20
89.289687
30
0.0
10
63.118398
20
91.740001
30
0.0
10
64.535276
20
93.806212
30
0.0
10
66.052586
20
95.490373
30
0.0
10
67.673412
20
96.794537
30
0.0
10
69.400836
20
97.720757
30
0.0
10
71.237939
20
98.271086
30
0.0
10
73.187805
20
98.447578
30
0.0
10
75.253514
20
98.252285
30
0.0
10
77.309087
20
97.786533
30
0.0
10
79.334223
20
97.155059
30
0.0
10
81.124114
20
96.430651
30
0.0
10
82.473950
20
95.686102
30
0.0
10
83.304829
20
94.998243
30
0.0
10
84.174864
20
94.072226
30
0.0
10
85.888606
20
91.731741
30
0.0
10
87.327584
20
89.116694
30
0.0
10
88.204207
20
86.679131
30
0.0
10
88.434622
20
84.889687
30
0.0
10
88.484662
20
82.657278
30
0.0
10
88.361531
20
80.422148
30
0.0
10
88.072428
20
78.624537
30
0.0
10
87.546000
20
76.975541
30
0.0
10
86.822163
20
75.216990
30
0.0
10
86.013631
20
73.597368
30
0.0
10
85.233121
20
72.365159
30
0.0
10
84.225765
20
71.366899
30
0.0
10
82.792282
20
70.262764
30
0.0
10
81.055348
20
69.083233
30
0.0
10
82.875995
20
68.467828
30
0.0
10
84.609775
20
67.810793
30
0.0
10
86.172140
20
67.061868
30
0.0
10
87.585511
20
66.201701
30
0.0
10
88.872306
20
65.210942
30
0.0
10
90.054947
20
64.070238
30
0.0
10
91.155852
20
62.760238
30
0.0
10
93.202136
20
59.554945
30
0.0
10
94.346787
20
57.289725
30
0.0
10
95.071848
20
55.369597
30
0.0
10
95.452068
20
53.541040
30
0.0
10
95.562197
20
51.550533
30
0.0
10
95.304883
20
48.512252
30
0.0
10
94.536046
20
45.747486
30
0.0
10
93.260347
20
43.268188
30
0.0
10
91.482446
20
41.086309
30
0.0
10
89.683575
20
39.550944
30
0.0
10
87.577103
20
38.583740
30
0.0
10
85.312953
20
37.939995
30
0.0
10
82.779325
20
37.928369
30
0.0
10
80.305755
20
38.165964
30
0.0
10
78.417919
20
38.662987
30
0.0
10
76.752096
20
39.562361
30
0.0
10
74.944563
20
41.007010
30
0.0
10
73.294543
20
42.368522
30
0.0
10
72.508087
20
42.834650
30
0.0
10
72.493834
20
41.967960
30
0.0
10
72.700394
20
40.125040
30
0.0
10
72.871995
20
37.984204
30
0.0
10
72.782816
20
35.857079
30
0.0
10
72.440214
20
33.814716
30
0.0
10
71.851545
20
31.928167
30
0.0
10
70.564955
20
29.371576
30
0.0
10
68.831926
20
26.788506
30
0.0
10
66.987452
20
24.623557
30
0.0
10
66.128108
20
23.836815
30
0.0
10
65.366525
20
23.321329
30
0.0
10
62.049774
20
22.185517
30
0.0
10
60.137008
20
21.694373
30
0.0
10
58.912292
20
21.496841
30
0.0
10
57.321086
20
21.877641
30
0.0
10
57.321086
20
21.877632
30
0.0
  0
ENDSEC
  0
SECTION
  2
OBJECTS
  0
DICTIONARY
  5
C
330
0
100
AcDbDictionary
  3
ACAD_GROUP
350
D
  3
ACAD_MLINESTYLE
350
17
  0
DICTIONARY
  5
D
330
C
100
AcDbDictionary
  0
DICTIONARY
  5
1A
330
C
100
AcDbDictionary
  0
DICTIONARY
  5
17
330
C
100
AcDbDictionary
  3
STANDARD
350
18
  0
DICTIONARY
  5
19
330
C
100
AcDbDictionary
  0
ENDSEC
  0
EOF
