999
Inkscape export via OpenSCAD DXF Export
  0
SECTION
  2
HEADER
  9
$ACADVER
  1
AC1014
  9
$HANDSEED
  5
FFFF
  9
$MEASUREMENT
 70
     1
  0
ENDSEC
  0
SECTION
  2
TABLES
  0
TABLE
  2
VPORT
  5
8
330
0
100
AcDbSymbolTable
 70
     4
  0
VPORT
  5
2E
330
8
100
AcDbSymbolTableRecord
100
AcDbViewportTableRecord
  2
*ACTIVE
 70
     0
 10
0.0
 20
0.0
 11
1.0
 21
1.0
 12
210.0
 22
148.5
 13
0.0
 23
0.0
 14
10.0
 24
10.0
 15
10.0
 25
10.0
 16
0.0
 26
0.0
 36
1.0
 17
0.0
 27
0.0
 37
0.0
 40
341.0
 41
1.24
 42
50.0
 43
0.0
 44
0.0
 50
0.0
 51
0.0
 71
     0
 72
   100
 73
     1
 74
     3
 75
     0
 76
     0
 77
     0
 78
     0
  0
ENDTAB
  0
TABLE
  2
LTYPE
  5
5
330
0
100
AcDbSymbolTable
 70
     1
  0
LTYPE
  5
14
330
5
100
AcDbSymbolTableRecord
100
AcDbLinetypeTableRecord
  2
BYBLOCK
 70
     0
  3

 72
    65
 73
     0
 40
0.0
  0
LTYPE
  5
15
330
5
100
AcDbSymbolTableRecord
100
AcDbLinetypeTableRecord
  2
BYLAYER
 70
     0
  3

 72
    65
 73
     0
 40
0.0
  0
LTYPE
  5
16
330
5
100
AcDbSymbolTableRecord
100
AcDbLinetypeTableRecord
  2
CONTINUOUS
 70
     0
  3
Solid line
 72
    65
 73
     0
 40
0.0
  0
ENDTAB
  0
TABLE
0
TABLE
2
LAYER
5
2
330
0
100
AcDbSymbolTable
70
1
0
LAYER
5
10
330
2
100
AcDbSymbolTableRecord
100
AcDbLayerTableRecord
2
Layer_1
70
0
62
7
6
CONTINUOUS
0
ENDTAB
0
ENDSEC
  0
ENDTAB
  0
TABLE
  2
STYLE
  5
3
330
0
100
AcDbSymbolTable
 70
     1
  0
STYLE
  5
11
330
3
100
AcDbSymbolTableRecord
100
AcDbTextStyleTableRecord
  2
STANDARD
 70
     0
 40
0.0
 41
1.0
 50
0.0
 71
     0
 42
2.5
  3
txt
  4

  0
ENDTAB
  0
TABLE
  2
VIEW
  5
6
330
0
100
AcDbSymbolTable
 70
     0
  0
ENDTAB
  0
TABLE
  2
UCS
  5
7
330
0
100
AcDbSymbolTable
 70
     0
  0
ENDTAB
  0
TABLE
  2
APPID
  5
9
330
0
100
AcDbSymbolTable
 70
     2
  0
APPID
  5
12
330
9
100
AcDbSymbolTableRecord
100
AcDbRegAppTableRecord
  2
ACAD
 70
     0
  0
ENDTAB
  0
TABLE
  2
DIMSTYLE
  5
A
330
0
100
AcDbSymbolTable
 70
     1
  0
DIMSTYLE
105
27
330
A
100
AcDbSymbolTableRecord
100
AcDbDimStyleTableRecord
  2
ISO-25
 70
     0
  3

  4

  5

  6

  7

 40
1.0
 41
2.5
 42
0.625
 43
3.75
 44
1.25
 45
0.0
 46
0.0
 47
0.0
 48
0.0
140
2.5
141
2.5
142
0.0
143
0.03937007874016
144
1.0
145
0.0
146
1.0
147
0.625
 71
     0
 72
     0
 73
     0
 74
     0
 75
     0
 76
     0
 77
     1
 78
     8
170
     0
171
     3
172
     1
173
     0
174
     0
175
     0
176
     0
177
     0
178
     0
270
     2
271
     2
272
     2
273
     2
274
     3
340
11
275
     0
280
     0
281
     0
282
     0
283
     0
284
     8
285
     0
286
     0
287
     3
288
     0
  0
ENDTAB
  0
TABLE
  2
BLOCK_RECORD
  5
1
330
0
100
AcDbSymbolTable
 70
     1
  0
BLOCK_RECORD
  5
1F
330
1
100
AcDbSymbolTableRecord
100
AcDbBlockTableRecord
  2
*MODEL_SPACE
  0
BLOCK_RECORD
  5
1B
330
1
100
AcDbSymbolTableRecord
100
AcDbBlockTableRecord
  2
*PAPER_SPACE
  0
ENDTAB
  0
ENDSEC
  0
SECTION
  2
BLOCKS
  0
BLOCK
  5
20
330
1F
100
AcDbEntity
  8
0
100
AcDbBlockBegin
  2
*MODEL_SPACE
 70
     0
 10
0.0
 20
0.0
 30
0.0
  3
*MODEL_SPACE
  1

  0
ENDBLK
  5
21
330
1F
100
AcDbEntity
  8
0
100
AcDbBlockEnd
  0
BLOCK
  5
1C
330
1B
100
AcDbEntity
 67
     1
  8
0
100
AcDbBlockBegin
  2
*PAPER_SPACE
  1

  0
ENDBLK
  5
1D
330
1B
100
AcDbEntity
 67
     1
  8
0
100
AcDbBlockEnd
  0
ENDSEC
  0
SECTION
  2
ENTITIES
0
DIMENSION
5
83
100
AcDbEntity
62
256
370
-1
6
ByLayer
1
total_width
3
Standard
70
0
71
5
72
1
41
1.0
100
AcDbAlignedDimension
13
7.962200
23
0.000000
33
0.0
14
78.176281
24
0.000000
34
0.0
50
0.000000
100
AcDbRotatedDimension
0
DIMENSION
5
83
100
AcDbEntity
62
256
370
-1
6
ByLayer
1
total_height
3
Standard
70
0
71
5
72
1
41
1.0
100
AcDbAlignedDimension
13
0.000000
23
213.649048
33
0.0
14
0.000000
24
290.560419
34
0.0
50
90.000000
100
AcDbRotatedDimension
0
DIMENSION
8
Layer_1
5
83
100
AcDbEntity
62
256
370
-1
6
ByLayer
1
Layer_1_width
3
Standard
70
0
71
5
72
1
41
1.0
100
AcDbAlignedDimension
13
7.962200
23
0.000000
33
0.0
14
78.176281
24
0.000000
34
0.0
50
0.000000
100
AcDbRotatedDimension
0
DIMENSION
8
Layer_1
5
83
100
AcDbEntity
62
256
370
-1
6
ByLayer
1
Layer_1_height
3
Standard
70
0
71
5
72
1
41
1.0
100
AcDbAlignedDimension
13
0.000000
23
213.649048
33
0.0
14
0.000000
24
290.560419
34
0.0
50
90.000000
100
AcDbRotatedDimension
0
LWPOLYLINE
100
AcDbPolyline
8
Layer_1
90
139
70
0
10
39.935170
20
214.029839
30
0.0
10
38.609081
20
214.725595
30
0.0
10
37.165438
20
215.677572
30
0.0
10
35.755103
20
216.777318
30
0.0
10
34.528938
20
217.916375
30
0.0
10
33.137959
20
219.634383
30
0.0
10
31.741327
20
221.803534
30
0.0
10
30.581683
20
224.008622
30
0.0
10
29.901673
20
225.834441
30
0.0
10
29.677128
20
227.634646
30
0.0
10
29.748077
20
229.781361
30
0.0
10
30.099281
20
232.112928
30
0.0
10
30.715503
20
234.467689
30
0.0
10
31.418361
20
237.062437
30
0.0
10
30.077774
20
236.353904
30
0.0
10
27.477099
20
235.153484
30
0.0
10
24.429188
20
234.288435
30
0.0
10
21.134705
20
233.801533
30
0.0
10
17.794311
20
233.735551
30
0.0
10
15.268058
20
233.978502
30
0.0
10
14.529259
20
234.225648
30
0.0
10
13.838168
20
234.624390
30
0.0
10
12.672514
20
235.599849
30
0.0
10
11.626525
20
236.924668
30
0.0
10
10.664540
20
238.653070
30
0.0
10
9.750896
20
240.839279
30
0.0
10
8.480552
20
244.808470
30
0.0
10
8.128398
20
246.486512
30
0.0
10
7.962200
20
248.014189
30
0.0
10
7.979917
20
249.432006
30
0.0
10
8.179507
20
250.780465
30
0.0
10
8.558929
20
252.100071
30
0.0
10
9.116139
20
253.431326
30
0.0
10
10.237120
20
255.360905
30
0.0
10
11.639323
20
257.009747
30
0.0
10
13.372470
20
258.426471
30
0.0
10
15.486287
20
259.659694
30
0.0
10
17.475947
20
260.571430
30
0.0
10
19.212354
20
261.174180
30
0.0
10
20.838883
20
261.507869
30
0.0
10
22.498908
20
261.612421
30
0.0
10
24.253757
20
261.615779
30
0.0
10
22.045306
20
263.803002
30
0.0
10
20.119074
20
265.928653
30
0.0
10
19.629913
20
266.791549
30
0.0
10
19.245416
20
267.824668
30
0.0
10
18.672073
20
269.864218
30
0.0
10
18.282737
20
271.916052
30
0.0
10
18.053636
20
274.144694
30
0.0
10
17.961000
20
276.714669
30
0.0
10
17.921839
20
280.101336
30
0.0
10
18.963849
20
281.952446
30
0.0
10
20.066073
20
283.597010
30
0.0
10
21.404743
20
285.075364
30
0.0
10
22.905132
20
286.315944
30
0.0
10
24.492517
20
287.247187
30
0.0
10
25.450784
20
287.653355
30
0.0
10
26.345711
20
287.877632
30
0.0
10
29.210725
20
287.975920
30
0.0
10
31.657315
20
287.842379
30
0.0
10
33.601489
20
287.411122
30
0.0
10
35.396796
20
286.561001
30
0.0
10
37.396784
20
285.170871
30
0.0
10
40.344206
20
282.627558
30
0.0
10
41.309203
20
281.493048
30
0.0
10
42.058757
20
280.321290
30
0.0
10
43.050474
20
278.925601
30
0.0
10
43.468818
20
279.422883
30
0.0
10
44.093567
20
280.740147
30
0.0
10
45.495542
20
283.553599
30
0.0
10
47.249559
20
286.081330
30
0.0
10
49.199561
20
288.130505
30
0.0
10
50.199287
20
288.915372
30
0.0
10
51.189486
20
289.508287
30
0.0
10
53.418639
20
290.311921
30
0.0
10
55.851521
20
290.560419
30
0.0
10
58.598429
20
290.252516
30
0.0
10
61.769656
20
289.386947
30
0.0
10
64.312461
20
288.276981
30
0.0
10
65.382778
20
287.568675
30
0.0
10
66.354946
20
286.722557
30
0.0
10
67.255899
20
285.711932
30
0.0
10
68.112567
20
284.510102
30
0.0
10
69.800778
20
281.426044
30
0.0
10
70.979614
20
278.972447
30
0.0
10
70.979614
20
275.162447
30
0.0
10
70.915124
20
272.579165
30
0.0
10
70.660645
20
270.618423
30
0.0
10
70.124669
20
268.848304
30
0.0
10
69.215686
20
266.836890
30
0.0
10
68.438971
20
265.420461
30
0.0
10
67.624646
20
264.303577
30
0.0
10
66.653511
20
263.347868
30
0.0
10
65.406366
20
262.414968
30
0.0
10
63.669432
20
261.235440
30
0.0
10
65.490079
20
260.620034
30
0.0
10
67.223859
20
259.962999
30
0.0
10
68.786224
20
259.214074
30
0.0
10
70.199595
20
258.353908
30
0.0
10
71.486390
20
257.363148
30
0.0
10
72.669031
20
256.222445
30
0.0
10
73.769936
20
254.912445
30
0.0
10
75.816220
20
251.707152
30
0.0
10
76.960871
20
249.441932
30
0.0
10
77.685931
20
247.521803
30
0.0
10
78.066152
20
245.693246
30
0.0
10
78.176281
20
243.702740
30
0.0
10
77.918967
20
240.664459
30
0.0
10
77.150130
20
237.899693
30
0.0
10
75.874431
20
235.420394
30
0.0
10
74.096530
20
233.238515
30
0.0
10
72.297659
20
231.703150
30
0.0
10
70.191187
20
230.735947
30
0.0
10
67.927037
20
230.092202
30
0.0
10
65.393409
20
230.080576
30
0.0
10
62.889849
20
230.320640
30
0.0
10
60.988200
20
230.829954
30
0.0
10
59.295817
20
231.766475
30
0.0
10
57.420056
20
233.288158
30
0.0
10
55.867906
20
234.625416
30
0.0
10
55.413919
20
234.916629
30
0.0
10
55.141212
20
234.934372
30
0.0
10
55.024702
20
234.662252
30
0.0
10
55.039305
20
234.083877
30
0.0
10
55.361518
20
231.942782
30
0.0
10
55.505815
20
230.072261
30
0.0
10
55.390999
20
228.006576
30
0.0
10
55.040135
20
225.950151
30
0.0
10
54.476286
20
224.107407
30
0.0
10
53.184903
20
221.536385
30
0.0
10
51.450435
20
218.946127
30
0.0
10
49.604972
20
216.778041
30
0.0
10
48.744397
20
215.990252
30
0.0
10
47.980608
20
215.473535
30
0.0
10
44.663857
20
214.337724
30
0.0
10
42.751091
20
213.846579
30
0.0
10
41.526375
20
213.649048
30
0.0
10
39.935170
20
214.029847
30
0.0
10
39.935170
20
214.029839
30
0.0
0
LWPOLYLINE
100
AcDbPolyline
8
Layer_1
90
192
70
0
10
45.460621
20
217.179205
30
0.0
10
47.158174
20
218.422808
30
0.0
10
48.716588
20
219.976307
30
0.0
10
50.101240
20
221.773116
30
0.0
10
51.277510
20
223.746646
30
0.0
10
52.210775
20
225.830312
30
0.0
10
52.866415
20
227.957527
30
0.0
10
53.209806
20
230.061704
30
0.0
10
53.206328
20
232.076257
30
0.0
10
52.801715
20
234.281013
30
0.0
10
52.090941
20
236.874034
30
0.0
10
50.646635
20
241.688040
30
0.0
10
50.131125
20
243.632534
30
0.0
10
50.779412
20
244.157484
30
0.0
10
51.618261
20
244.682437
30
0.0
10
52.093361
20
244.302081
30
0.0
10
52.764813
20
243.422812
30
0.0
10
53.364851
20
242.437337
30
0.0
10
53.625705
20
241.738357
30
0.0
10
53.886120
20
240.525609
30
0.0
10
54.669791
20
239.110823
30
0.0
10
55.996228
20
237.465703
30
0.0
10
57.884943
20
235.561952
30
0.0
10
60.021378
20
233.684802
30
0.0
10
61.752098
20
232.590502
30
0.0
10
63.535872
20
232.068000
30
0.0
10
65.831472
20
231.906246
30
0.0
10
68.165810
20
232.125621
30
0.0
10
70.291596
20
232.843304
30
0.0
10
72.168113
20
234.009467
30
0.0
10
73.754648
20
235.574284
30
0.0
10
75.010483
20
237.487928
30
0.0
10
75.894904
20
239.700571
30
0.0
10
76.367196
20
242.162387
30
0.0
10
76.386642
20
244.823549
30
0.0
10
75.861120
20
247.184509
30
0.0
10
74.735136
20
249.894994
30
0.0
10
73.186342
20
252.595611
30
0.0
10
71.392387
20
254.926972
30
0.0
10
69.876759
20
256.357592
30
0.0
10
68.268201
20
257.492639
30
0.0
10
66.717830
20
258.241968
30
0.0
10
65.376764
20
258.515433
30
0.0
10
63.255404
20
258.948974
30
0.0
10
62.128296
20
259.185622
30
0.0
10
60.727966
20
259.228477
30
0.0
10
59.143612
20
259.080674
30
0.0
10
57.464427
20
258.745351
30
0.0
10
56.494099
20
258.611207
30
0.0
10
55.916988
20
258.918556
30
0.0
10
55.636197
20
259.365312
30
0.0
10
55.744398
20
259.804548
30
0.0
10
56.478005
20
260.312864
30
0.0
10
57.874962
20
261.012351
30
0.0
10
59.344520
20
261.631297
30
0.0
10
60.295931
20
261.897993
30
0.0
10
61.451922
20
262.585221
30
0.0
10
62.271873
20
263.129962
30
0.0
10
63.096352
20
263.474611
30
0.0
10
64.275245
20
263.929620
30
0.0
10
65.371171
20
264.683232
30
0.0
10
66.368253
20
265.708640
30
0.0
10
67.250613
20
266.979040
30
0.0
10
68.002375
20
268.467625
30
0.0
10
68.607662
20
270.147588
30
0.0
10
69.050597
20
271.992125
30
0.0
10
69.315305
20
273.974429
30
0.0
10
69.358819
20
275.959400
30
0.0
10
69.135605
20
277.812489
30
0.0
10
68.633277
20
279.595773
30
0.0
10
67.839452
20
281.371327
30
0.0
10
66.216884
20
284.068699
30
0.0
10
65.394949
20
285.090705
30
0.0
10
64.516944
20
285.935820
30
0.0
10
63.546144
20
286.634715
30
0.0
10
62.445822
20
287.218063
30
0.0
10
59.709708
20
288.160801
30
0.0
10
57.523105
20
288.614707
30
0.0
10
55.518276
20
288.756473
30
0.0
10
53.747212
20
288.586487
30
0.0
10
52.261905
20
288.105138
30
0.0
10
50.917152
20
287.272348
30
0.0
10
49.612051
20
286.114043
30
0.0
10
48.383378
20
284.690366
30
0.0
10
47.267913
20
283.061458
30
0.0
10
46.302434
20
281.287462
30
0.0
10
45.523718
20
279.428519
30
0.0
10
44.968544
20
277.544772
30
0.0
10
44.673689
20
275.696363
30
0.0
10
44.690374
20
273.675844
30
0.0
10
45.162589
20
271.247457
30
0.0
10
45.638141
20
268.900194
30
0.0
10
45.620220
20
268.182423
30
0.0
10
45.455098
20
267.467976
30
0.0
10
45.046420
20
266.240903
30
0.0
10
44.678589
20
265.559592
30
0.0
10
44.285954
20
265.346860
30
0.0
10
43.802862
20
265.525522
30
0.0
10
43.359589
20
266.374927
30
0.0
10
42.880551
20
268.069400
30
0.0
10
42.495892
20
270.054497
30
0.0
10
42.335755
20
271.775771
30
0.0
10
42.251665
20
273.623009
30
0.0
10
42.005525
20
275.321168
30
0.0
10
41.588021
20
276.889206
30
0.0
10
40.989838
20
278.346079
30
0.0
10
40.201661
20
279.710745
30
0.0
10
39.214177
20
281.002160
30
0.0
10
38.018071
20
282.239281
30
0.0
10
36.604027
20
283.441065
30
0.0
10
34.785353
20
284.774710
30
0.0
10
33.315699
20
285.553251
30
0.0
10
31.764542
20
285.943224
30
0.0
10
29.701357
20
286.111164
30
0.0
10
26.962279
20
286.104774
30
0.0
10
26.094493
20
285.861174
30
0.0
10
25.042004
20
285.375304
30
0.0
10
23.702128
20
284.628127
30
0.0
10
22.651854
20
283.796652
30
0.0
10
21.726905
20
282.722381
30
0.0
10
20.763007
20
281.246819
30
0.0
10
19.921855
20
279.518330
30
0.0
10
19.758598
20
277.577930
30
0.0
10
20.076594
20
272.946358
30
0.0
10
20.422815
20
270.759875
30
0.0
10
20.851602
20
268.991465
30
0.0
10
21.388643
20
267.754913
30
0.0
10
22.221782
20
266.469410
30
0.0
10
23.302153
20
265.178681
30
0.0
10
24.580894
20
263.926451
30
0.0
10
26.009140
20
262.756442
30
0.0
10
27.538028
20
261.712379
30
0.0
10
29.118693
20
260.837985
30
0.0
10
30.702273
20
260.176985
30
0.0
10
32.637228
20
259.324931
30
0.0
10
32.920184
20
258.948043
30
0.0
10
33.004702
20
258.498552
30
0.0
10
32.892855
20
258.044968
30
0.0
10
32.586716
20
257.655801
30
0.0
10
32.252963
20
257.516998
30
0.0
10
31.690484
20
257.571636
30
0.0
10
29.270607
20
258.397354
30
0.0
10
27.571072
20
259.020225
30
0.0
10
26.300462
20
259.348872
30
0.0
10
24.912454
20
259.477197
30
0.0
10
22.860725
20
259.499104
30
0.0
10
19.332950
20
259.499104
30
0.0
10
16.820456
20
258.265790
30
0.0
10
14.683975
20
257.081405
30
0.0
10
13.059206
20
255.839219
30
0.0
10
11.816963
20
254.419279
30
0.0
10
10.828060
20
252.701630
30
0.0
10
10.055413
20
250.710863
30
0.0
10
9.885403
20
248.750518
30
0.0
10
9.952297
20
247.125404
30
0.0
10
10.192439
20
245.608093
30
0.0
10
11.505438
20
241.495274
30
0.0
10
12.635184
20
238.870415
30
0.0
10
13.235583
20
237.982429
30
0.0
10
14.017690
20
237.101000
30
0.0
10
15.475763
20
235.587338
30
0.0
10
19.521023
20
235.711826
30
0.0
10
23.495011
20
236.033557
30
0.0
10
25.160052
20
236.376376
30
0.0
10
26.714875
20
236.881296
30
0.0
10
28.237795
20
237.578916
30
0.0
10
29.807126
20
238.499835
30
0.0
10
33.398279
20
241.133967
30
0.0
10
34.886151
20
242.182674
30
0.0
10
35.726613
20
242.517212
30
0.0
10
36.052986
20
242.210849
30
0.0
10
36.084024
20
241.679141
30
0.0
10
35.825708
20
240.955143
30
0.0
10
35.284021
20
240.071909
30
0.0
10
34.343509
20
238.171699
30
0.0
10
33.243035
20
235.191290
30
0.0
10
32.281594
20
232.022382
30
0.0
10
31.758179
20
229.556675
30
0.0
10
31.699598
20
227.957984
30
0.0
10
31.967707
20
226.492962
30
0.0
10
32.637757
20
224.917756
30
0.0
10
33.784994
20
222.988512
30
0.0
10
36.067795
20
219.773585
30
0.0
10
37.108392
20
218.593222
30
0.0
10
38.114409
20
217.671445
30
0.0
10
39.110311
20
216.988644
30
0.0
10
40.120565
20
216.525209
30
0.0
10
41.169639
20
216.261529
30
0.0
10
42.281997
20
216.177993
30
0.0
10
43.835103
20
216.370688
30
0.0
10
45.460621
20
217.179205
30
0.0
10
45.460621
20
217.179205
30
0.0
  0
ENDSEC
  0
SECTION
  2
OBJECTS
  0
DICTIONARY
  5
C
330
0
100
AcDbDictionary
  3
ACAD_GROUP
350
D
  3
ACAD_MLINESTYLE
350
17
  0
DICTIONARY
  5
D
330
C
100
AcDbDictionary
  0
DICTIONARY
  5
1A
330
C
100
AcDbDictionary
  0
DICTIONARY
  5
17
330
C
100
AcDbDictionary
  3
STANDARD
350
18
  0
DICTIONARY
  5
19
330
C
100
AcDbDictionary
  0
ENDSEC
  0
EOF
