999
Inkscape export via OpenSCAD DXF Export
  0
SECTION
  2
HEADER
  9
$ACADVER
  1
AC1014
  9
$HANDSEED
  5
FFFF
  9
$MEASUREMENT
 70
     1
  0
ENDSEC
  0
SECTION
  2
TABLES
  0
TABLE
  2
VPORT
  5
8
330
0
100
AcDbSymbolTable
 70
     4
  0
VPORT
  5
2E
330
8
100
AcDbSymbolTableRecord
100
AcDbViewportTableRecord
  2
*ACTIVE
 70
     0
 10
0.0
 20
0.0
 11
1.0
 21
1.0
 12
210.0
 22
148.5
 13
0.0
 23
0.0
 14
10.0
 24
10.0
 15
10.0
 25
10.0
 16
0.0
 26
0.0
 36
1.0
 17
0.0
 27
0.0
 37
0.0
 40
341.0
 41
1.24
 42
50.0
 43
0.0
 44
0.0
 50
0.0
 51
0.0
 71
     0
 72
   100
 73
     1
 74
     3
 75
     0
 76
     0
 77
     0
 78
     0
  0
ENDTAB
  0
TABLE
  2
LTYPE
  5
5
330
0
100
AcDbSymbolTable
 70
     1
  0
LTYPE
  5
14
330
5
100
AcDbSymbolTableRecord
100
AcDbLinetypeTableRecord
  2
BYBLOCK
 70
     0
  3

 72
    65
 73
     0
 40
0.0
  0
LTYPE
  5
15
330
5
100
AcDbSymbolTableRecord
100
AcDbLinetypeTableRecord
  2
BYLAYER
 70
     0
  3

 72
    65
 73
     0
 40
0.0
  0
LTYPE
  5
16
330
5
100
AcDbSymbolTableRecord
100
AcDbLinetypeTableRecord
  2
CONTINUOUS
 70
     0
  3
Solid line
 72
    65
 73
     0
 40
0.0
  0
ENDTAB
  0
TABLE
0
TABLE
2
LAYER
5
2
330
0
100
AcDbSymbolTable
70
1
0
LAYER
5
10
330
2
100
AcDbSymbolTableRecord
100
AcDbLayerTableRecord
2
Layer_1
70
0
62
7
6
CONTINUOUS
0
ENDTAB
0
ENDSEC
  0
ENDTAB
  0
TABLE
  2
STYLE
  5
3
330
0
100
AcDbSymbolTable
 70
     1
  0
STYLE
  5
11
330
3
100
AcDbSymbolTableRecord
100
AcDbTextStyleTableRecord
  2
STANDARD
 70
     0
 40
0.0
 41
1.0
 50
0.0
 71
     0
 42
2.5
  3
txt
  4

  0
ENDTAB
  0
TABLE
  2
VIEW
  5
6
330
0
100
AcDbSymbolTable
 70
     0
  0
ENDTAB
  0
TABLE
  2
UCS
  5
7
330
0
100
AcDbSymbolTable
 70
     0
  0
ENDTAB
  0
TABLE
  2
APPID
  5
9
330
0
100
AcDbSymbolTable
 70
     2
  0
APPID
  5
12
330
9
100
AcDbSymbolTableRecord
100
AcDbRegAppTableRecord
  2
ACAD
 70
     0
  0
ENDTAB
  0
TABLE
  2
DIMSTYLE
  5
A
330
0
100
AcDbSymbolTable
 70
     1
  0
DIMSTYLE
105
27
330
A
100
AcDbSymbolTableRecord
100
AcDbDimStyleTableRecord
  2
ISO-25
 70
     0
  3

  4

  5

  6

  7

 40
1.0
 41
2.5
 42
0.625
 43
3.75
 44
1.25
 45
0.0
 46
0.0
 47
0.0
 48
0.0
140
2.5
141
2.5
142
0.0
143
0.03937007874016
144
1.0
145
0.0
146
1.0
147
0.625
 71
     0
 72
     0
 73
     0
 74
     0
 75
     0
 76
     0
 77
     1
 78
     8
170
     0
171
     3
172
     1
173
     0
174
     0
175
     0
176
     0
177
     0
178
     0
270
     2
271
     2
272
     2
273
     2
274
     3
340
11
275
     0
280
     0
281
     0
282
     0
283
     0
284
     8
285
     0
286
     0
287
     3
288
     0
  0
ENDTAB
  0
TABLE
  2
BLOCK_RECORD
  5
1
330
0
100
AcDbSymbolTable
 70
     1
  0
BLOCK_RECORD
  5
1F
330
1
100
AcDbSymbolTableRecord
100
AcDbBlockTableRecord
  2
*MODEL_SPACE
  0
BLOCK_RECORD
  5
1B
330
1
100
AcDbSymbolTableRecord
100
AcDbBlockTableRecord
  2
*PAPER_SPACE
  0
ENDTAB
  0
ENDSEC
  0
SECTION
  2
BLOCKS
  0
BLOCK
  5
20
330
1F
100
AcDbEntity
  8
0
100
AcDbBlockBegin
  2
*MODEL_SPACE
 70
     0
 10
0.0
 20
0.0
 30
0.0
  3
*MODEL_SPACE
  1

  0
ENDBLK
  5
21
330
1F
100
AcDbEntity
  8
0
100
AcDbBlockEnd
  0
BLOCK
  5
1C
330
1B
100
AcDbEntity
 67
     1
  8
0
100
AcDbBlockBegin
  2
*PAPER_SPACE
  1

  0
ENDBLK
  5
1D
330
1B
100
AcDbEntity
 67
     1
  8
0
100
AcDbBlockEnd
  0
ENDSEC
  0
SECTION
  2
ENTITIES
0
DIMENSION
5
83
100
AcDbEntity
62
256
370
-1
6
ByLayer
1
total_width
3
Standard
70
0
71
5
72
1
41
1.0
100
AcDbAlignedDimension
13
3.732030
23
0.000000
33
0.0
14
145.586566
24
0.000000
34
0.0
50
0.000000
100
AcDbRotatedDimension
0
DIMENSION
5
83
100
AcDbEntity
62
256
370
-1
6
ByLayer
1
total_height
3
Standard
70
0
71
5
72
1
41
1.0
100
AcDbAlignedDimension
13
0.000000
23
2.751800
33
0.0
14
0.000000
24
134.432145
34
0.0
50
90.000000
100
AcDbRotatedDimension
0
DIMENSION
8
Layer_1
5
83
100
AcDbEntity
62
256
370
-1
6
ByLayer
1
Layer_1_width
3
Standard
70
0
71
5
72
1
41
1.0
100
AcDbAlignedDimension
13
3.732030
23
0.000000
33
0.0
14
145.586566
24
0.000000
34
0.0
50
0.000000
100
AcDbRotatedDimension
0
DIMENSION
8
Layer_1
5
83
100
AcDbEntity
62
256
370
-1
6
ByLayer
1
Layer_1_height
3
Standard
70
0
71
5
72
1
41
1.0
100
AcDbAlignedDimension
13
0.000000
23
2.751800
33
0.0
14
0.000000
24
134.432145
34
0.0
50
90.000000
100
AcDbRotatedDimension
0
LWPOLYLINE
100
AcDbPolyline
8
Layer_1
90
134
70
0
10
4.837560
20
2.827314
30
0.0
10
9.894042
20
5.057713
30
0.0
10
16.056793
20
7.814133
30
0.0
10
22.061840
20
10.704778
30
0.0
10
27.883572
20
13.710296
30
0.0
10
33.496375
20
16.811330
30
0.0
10
38.874636
20
19.988528
30
0.0
10
43.992742
20
23.222534
30
0.0
10
48.825081
20
26.493994
30
0.0
10
53.346039
20
29.783554
30
0.0
10
57.530004
20
33.071860
30
0.0
10
61.351364
20
36.339557
30
0.0
10
64.784504
20
39.567291
30
0.0
10
67.803812
20
42.735707
30
0.0
10
70.383676
20
45.825452
30
0.0
10
72.498482
20
48.817171
30
0.0
10
74.122618
20
51.691509
30
0.0
10
75.230471
20
54.429112
30
0.0
10
75.807491
20
56.827087
30
0.0
10
75.957423
20
59.018137
30
0.0
10
75.679578
20
61.003514
30
0.0
10
74.973271
20
62.784473
30
0.0
10
73.837815
20
64.362265
30
0.0
10
72.272522
20
65.738143
30
0.0
10
70.276706
20
66.913361
30
0.0
10
67.849679
20
67.889171
30
0.0
10
65.867073
20
68.466937
30
0.0
10
63.837560
20
68.869735
30
0.0
10
61.627584
20
69.095411
30
0.0
10
59.103588
20
69.141812
30
0.0
10
52.579308
20
68.688171
30
0.0
10
43.196264
20
67.491582
30
0.0
10
37.060078
20
66.705962
30
0.0
10
31.529130
20
66.167200
30
0.0
10
26.571055
20
65.875927
30
0.0
10
22.153487
20
65.832773
30
0.0
10
18.244058
20
66.038371
30
0.0
10
14.810403
20
66.493352
30
0.0
10
11.820154
20
67.198347
30
0.0
10
9.240946
20
68.153988
30
0.0
10
7.858178
20
68.874425
30
0.0
10
6.674434
20
69.689218
30
0.0
10
5.689457
20
70.595003
30
0.0
10
4.902987
20
71.588414
30
0.0
10
4.314765
20
72.666088
30
0.0
10
3.924532
20
73.824660
30
0.0
10
3.732030
20
75.060765
30
0.0
10
3.736999
20
76.371039
30
0.0
10
3.939181
20
77.752118
30
0.0
10
4.338316
20
79.200636
30
0.0
10
4.934146
20
80.713230
30
0.0
10
5.726411
20
82.286535
30
0.0
10
7.899212
20
85.601820
30
0.0
10
10.854647
20
89.119575
30
0.0
10
13.633458
20
91.939050
30
0.0
10
16.772878
20
94.796761
30
0.0
10
20.254564
20
97.682317
30
0.0
10
24.060172
20
100.585327
30
0.0
10
28.171358
20
103.495398
30
0.0
10
32.569779
20
106.402140
30
0.0
10
42.154951
20
112.164070
30
0.0
10
52.668938
20
117.787985
30
0.0
10
63.964991
20
123.190755
30
0.0
10
75.896360
20
128.289249
30
0.0
10
88.316297
20
133.000334
30
0.0
10
92.767587
20
134.432145
30
0.0
10
91.533111
20
133.817331
30
0.0
10
85.472617
20
131.258290
30
0.0
10
77.622965
20
127.549073
30
0.0
10
69.441952
20
123.403938
30
0.0
10
62.387376
20
119.537146
30
0.0
10
54.112555
20
114.465099
30
0.0
10
46.600871
20
109.326293
30
0.0
10
39.924123
20
104.188704
30
0.0
10
34.154108
20
99.120312
30
0.0
10
31.631563
20
96.633308
30
0.0
10
29.362626
20
94.189095
30
0.0
10
27.356271
20
91.796171
30
0.0
10
25.621474
20
89.463033
30
0.0
10
24.167208
20
87.198177
30
0.0
10
23.002450
20
85.010102
30
0.0
10
22.136174
20
82.907305
30
0.0
10
21.577354
20
80.898283
30
0.0
10
21.350166
20
79.232443
30
0.0
10
21.367564
20
77.665480
30
0.0
10
21.622737
20
76.201311
30
0.0
10
22.108875
20
74.843853
30
0.0
10
22.819166
20
73.597023
30
0.0
10
23.746798
20
72.464737
30
0.0
10
24.884962
20
71.450914
30
0.0
10
26.226845
20
70.559469
30
0.0
10
27.765637
20
69.794319
30
0.0
10
29.494526
20
69.159382
30
0.0
10
31.406702
20
68.658574
30
0.0
10
33.495353
20
68.295812
30
0.0
10
35.753668
20
68.075013
30
0.0
10
38.174836
20
68.000094
30
0.0
10
43.478487
20
68.303563
30
0.0
10
52.650709
20
69.451364
30
0.0
10
62.989340
20
70.700236
30
0.0
10
71.277376
20
71.214612
30
0.0
10
75.556437
20
71.235252
30
0.0
10
79.381261
20
71.018495
30
0.0
10
82.754774
20
70.563458
30
0.0
10
85.679905
20
69.869258
30
0.0
10
88.159583
20
68.935014
30
0.0
10
90.196735
20
67.759843
30
0.0
10
91.794291
20
66.342863
30
0.0
10
92.955178
20
64.683191
30
0.0
10
93.422258
20
63.243566
30
0.0
10
93.574081
20
61.438474
30
0.0
10
93.411324
20
59.499097
30
0.0
10
92.934660
20
57.656620
30
0.0
10
91.541678
20
54.710628
30
0.0
10
89.499275
20
51.618728
30
0.0
10
86.840512
20
48.402244
30
0.0
10
83.598447
20
45.082500
30
0.0
10
79.806138
20
41.680820
30
0.0
10
75.496643
20
38.218529
30
0.0
10
70.703022
20
34.716950
30
0.0
10
65.458332
20
31.197407
30
0.0
10
59.795633
20
27.681226
30
0.0
10
53.747983
20
24.189730
30
0.0
10
47.348441
20
20.744243
30
0.0
10
40.630065
20
17.366089
30
0.0
10
33.625913
20
14.076593
30
0.0
10
26.369045
20
10.897078
30
0.0
10
18.892518
20
7.848869
30
0.0
10
11.229392
20
4.953291
30
0.0
10
5.780965
20
3.010969
30
0.0
10
4.903957
20
2.751800
30
0.0
10
4.789163
20
2.754283
30
0.0
10
4.837569
20
2.827314
30
0.0
10
4.837560
20
2.827314
30
0.0
0
LWPOLYLINE
100
AcDbPolyline
8
Layer_1
90
45
70
0
10
132.594618
20
55.889737
30
0.0
10
132.519598
20
63.541616
30
0.0
10
122.077376
20
63.549236
30
0.0
10
114.282674
20
63.623208
30
0.0
10
110.205768
20
63.790328
30
0.0
10
108.776386
20
64.023785
30
0.0
10
108.460653
20
65.867020
30
0.0
10
108.144920
20
67.710256
30
0.0
10
114.717802
20
80.583707
30
0.0
10
121.651847
20
93.986907
30
0.0
10
126.731773
20
103.289052
30
0.0
10
127.563580
20
104.529952
30
0.0
10
128.256572
20
105.199959
30
0.0
10
131.428346
20
106.162768
30
0.0
10
134.017063
20
106.729324
30
0.0
10
133.500311
20
105.196505
30
0.0
10
131.577103
20
101.016073
30
0.0
10
123.598686
20
84.895456
30
0.0
10
116.009598
20
69.584911
30
0.0
10
118.359253
20
69.399912
30
0.0
10
124.335153
20
69.327172
30
0.0
10
132.660709
20
69.327172
30
0.0
10
132.660709
20
77.652728
30
0.0
10
132.660709
20
85.978283
30
0.0
10
135.478670
20
85.978283
30
0.0
10
138.296627
20
85.978283
30
0.0
10
138.371447
20
77.723283
30
0.0
10
138.446264
20
69.468283
30
0.0
10
141.974042
20
69.327172
30
0.0
10
145.501820
20
69.186061
30
0.0
10
145.586566
20
67.394291
30
0.0
10
145.570499
20
66.314680
30
0.0
10
145.404191
20
65.410010
30
0.0
10
145.076535
20
64.670703
30
0.0
10
144.576421
20
64.087179
30
0.0
10
143.892743
20
63.649860
30
0.0
10
143.014391
20
63.349166
30
0.0
10
140.629236
20
63.119339
30
0.0
10
138.296653
20
63.118210
30
0.0
10
138.484889
20
56.415432
30
0.0
10
138.673129
20
49.712654
30
0.0
10
135.671385
20
48.975219
30
0.0
10
132.669641
20
48.237783
30
0.0
10
132.594618
20
55.889663
30
0.0
10
132.594618
20
55.889737
30
0.0
  0
ENDSEC
  0
SECTION
  2
OBJECTS
  0
DICTIONARY
  5
C
330
0
100
AcDbDictionary
  3
ACAD_GROUP
350
D
  3
ACAD_MLINESTYLE
350
17
  0
DICTIONARY
  5
D
330
C
100
AcDbDictionary
  0
DICTIONARY
  5
1A
330
C
100
AcDbDictionary
  0
DICTIONARY
  5
17
330
C
100
AcDbDictionary
  3
STANDARD
350
18
  0
DICTIONARY
  5
19
330
C
100
AcDbDictionary
  0
ENDSEC
  0
EOF
